<svg xmlns="http://www.w3.org/2000/svg" width="240.196" height="209.185" viewBox="0 0 240.196 209.185"><defs><style>.a{fill:#263238;}.b{fill:rgba(236,169,0,0.07);}.c{fill:#a07767;}.d{fill:#b20e10;}.e{opacity:0.3;}.f{fill:#eca900;}.g{opacity:0.6;}.h{fill:#455a64;}.i{fill:#fafafa;}.j{fill:#ce9403;}.k{fill:#7e5f52;}.l{fill:#7b090a;}.m{fill:#fff;}.n{fill:#eb996e;}</style></defs><g transform="translate(24.039 -68.665)"><g transform="translate(28.998 273.5)"><path class="a" d="M222.019,477.362c0,.082-41.9.142-93.575.142s-93.584-.06-93.584-.142,41.892-.142,93.584-.142S222.019,477.285,222.019,477.362Z" transform="translate(-34.86 -477.22)"/><g transform="translate(-53.037 -174.921)"><path class="b" d="M252.5,128.295a114.527,114.527,0,0,0-91.12-47.414c-35.546-.186-64.106,15.06-82.33,57.149l2.863-4.295c-11.682,29.333-7.158,65.71,13.027,90.619,27.443,33.857,78.307,44.594,118.735,28.36,28.288-11.352,52.439-36.577,55.7-66.884C271.568,165.516,264.324,145.015,252.5,128.295Z" transform="translate(-75.57 -80.879)"/></g></g><g transform="translate(21.961 68.665)"><path class="c" d="M27.765,419.032a3.775,3.775,0,0,0-3.546,3.022,36.375,36.375,0,0,0-.835,4.042s-3.2,2.88,0,3.65,4.364-3.546,4.364-3.546l.491-7.19Z" transform="translate(-21.961 -245.931)"/><path class="d" d="M91.38,269.827s10.005-33.6,11.025-35.046c1.68-2.395,17.877-9.6,17.877-9.6l4.364-8.86,26.9-4.326,6.672,8.587,18.75,13.78-1.309,47.528-.7,33.185,3.551,41.428-85.159-.158,3.852-8.729,4.042-75.35Z" transform="translate(-53.509 -151.854)"/><path class="a" d="M112.375,287.431a.9.9,0,0,1-.033-.273,5.3,5.3,0,0,0-.044-.78c0-.676-.06-1.637-.082-2.864-.044-2.422-.044-5.766.06-9.46s.3-7.032.486-9.449c.087-1.206.175-2.182.245-2.853l.082-.775a1.506,1.506,0,0,1,.049-.267.807.807,0,0,1,0,.273,7.008,7.008,0,0,1-.033.775c-.038.72-.093,1.686-.158,2.864-.131,2.417-.295,5.75-.4,9.443s-.136,7.027-.142,9.449v3.644A.966.966,0,0,1,112.375,287.431Z" transform="translate(-62.966 -173.99)"/><g class="e" transform="translate(66.081 101.734)"><path d="M145.709,290.287a1.637,1.637,0,0,1,.311-1.053,2.728,2.728,0,0,1,3.18-.786,5.147,5.147,0,0,1,2.422,3.873c.311,1.7.267,3.459.589,5.161A6.156,6.156,0,0,0,154.8,301.8c1.849,1.091,4.277.6,6.219,1.517,2.891,1.358,3.562,5.117,3.71,8.314.273,6.05,0,12.106-.251,18.156l-1.669,38.635L161.289,387.8l-7.834,3.328L143.09,323.02Z" transform="translate(-143.09 -288.231)"/></g><path class="a" d="M149.642,265.092a.545.545,0,0,1-.2.109,1.375,1.375,0,0,1-.666.065A2.286,2.286,0,0,1,147,263.712a4.113,4.113,0,0,1-.158-1.68,18.074,18.074,0,0,1,.316-1.882c.262-1.32.546-2.76.851-4.272.611-3.028,1.178-5.766,1.6-7.747l.546-2.34a5.779,5.779,0,0,1,.224-.851,4.768,4.768,0,0,1-.115.873c-.115.606-.256,1.4-.431,2.362-.376,1.986-.917,4.73-1.528,7.758-.311,1.511-.606,2.951-.873,4.266a7.127,7.127,0,0,0-.224,3.453,2.182,2.182,0,0,0,1.6,1.506A1.9,1.9,0,0,0,149.642,265.092Z" transform="translate(-78.701 -166.824)"/><path class="a" d="M154.829,258.691c0,.027-.224.027-.595.142a2.766,2.766,0,0,0-1.315.927,2.324,2.324,0,0,0-.4,2.237,2.433,2.433,0,0,0,4.512.36,2.319,2.319,0,0,0-.044-2.269,2.727,2.727,0,0,0-1.151-1.124c-.349-.175-.546-.207-.546-.235s.055,0,.158,0a1.671,1.671,0,0,1,.447.126,2.7,2.7,0,0,1,1.282,1.124,2.728,2.728,0,0,1,.376,1.14,2.411,2.411,0,0,1-.273,1.353,2.684,2.684,0,0,1-5-.4,2.4,2.4,0,0,1-.055-1.38,2.76,2.76,0,0,1,1.991-1.969,1.636,1.636,0,0,1,.464-.055A.426.426,0,0,1,154.829,258.691Z" transform="translate(-81.127 -173.063)"/><path class="f" d="M113.748,314.963l-49.186-8.9L41.6,311.1l51.379,9.247Z" transform="translate(-30.886 -194.6)"/><g class="g" transform="translate(10.714 111.46)"><path d="M113.748,314.963l-49.186-8.9L41.6,311.1l51.379,9.247Z" transform="translate(-41.6 -306.06)"/></g><path class="h" d="M116.2,318.232c.666-9.067,3.153-32.094,5.019-40.992a20.836,20.836,0,0,1,2.728-7.638c1.528-2.253,4.222-3.9,6.907-3.486a7.389,7.389,0,0,1,5.3,4.544,16.094,16.094,0,0,1,1.238,7.13c-.464,11-1.413,23.316-1.4,33.513" transform="translate(-64.789 -176.418)"/><path class="a" d="M136.882,322.12a18.455,18.455,0,0,1-1.822.578,36.551,36.551,0,0,0-8.363,3.791,18.11,18.11,0,0,1-1.637.993,3.671,3.671,0,0,1,.387-.344c.262-.207.649-.486,1.14-.818a29.049,29.049,0,0,1,4.053-2.248,28.244,28.244,0,0,1,4.364-1.566c.573-.153,1.042-.262,1.364-.322A2,2,0,0,1,136.882,322.12Z" transform="translate(-68.815 -201.899)"/><path class="a" d="M138.277,302.937c0,.044-.736.207-1.915.573a25.93,25.93,0,0,0-8.472,4.452c-.966.764-1.528,1.287-1.56,1.255a2.329,2.329,0,0,1,.355-.409,13.474,13.474,0,0,1,1.091-1,21.849,21.849,0,0,1,4.021-2.728,22.124,22.124,0,0,1,4.523-1.773,14.045,14.045,0,0,1,1.435-.322A1.719,1.719,0,0,1,138.277,302.937Z" transform="translate(-69.392 -193.18)"/><path class="a" d="M138.671,287.468c0,.049-.584.076-1.506.246a13.2,13.2,0,0,0-3.453,1.151,13.349,13.349,0,0,0-3,2.062c-.693.633-1.091,1.091-1.091,1.053a1.219,1.219,0,0,1,.224-.349,7.669,7.669,0,0,1,.736-.851,11.456,11.456,0,0,1,6.546-3.273,8.049,8.049,0,0,1,1.124-.076A1.153,1.153,0,0,1,138.671,287.468Z" transform="translate(-70.888 -186.133)"/><path class="i" d="M115.145,317.7a.164.164,0,0,0,0,.049v31.478c0,1.38-1.091,2.8-3.159,3.884a19.107,19.107,0,0,1-8.729,1.822h-.049c-7.447,0-11.9-2.94-11.9-5.706V317.75a.3.3,0,0,0,0-.049v-.06c0-3.077,2.275-6.29,4.555-9.465,1.528-2.117,1.893-5.172,1.964-6.961v-.584h-.207a1.637,1.637,0,0,1-1.773-1.522v-1.331a1.637,1.637,0,0,1,1.773-1.533h11.184a1.8,1.8,0,0,1,1.637.933,1.4,1.4,0,0,1,.136.6v1.331a1.637,1.637,0,0,1-1.778,1.522h-.2v.584c.071,1.789.436,4.844,1.969,6.961,2.275,3.175,4.539,6.388,4.555,9.465A.081.081,0,0,1,115.145,317.7Z" transform="translate(-53.477 -190.137)"/><path class="a" d="M115.021,317.6a2.373,2.373,0,0,0,0-.322,8.125,8.125,0,0,0-.115-.938,12.286,12.286,0,0,0-1.3-3.415,46.067,46.067,0,0,0-3.219-4.883,9.935,9.935,0,0,1-1.462-3.388,18.232,18.232,0,0,1-.5-4.119v-.1h.1a2.073,2.073,0,0,0,1.184-.278,1.418,1.418,0,0,0,.687-.987c0-.42,0-.895,0-1.348a1.358,1.358,0,0,0-.486-1.162,1.866,1.866,0,0,0-1.266-.415H97.668a1.855,1.855,0,0,0-1.451.513,1.32,1.32,0,0,0-.349.687,8.216,8.216,0,0,0,0,.835v.851a1.326,1.326,0,0,0,.338.709,1.855,1.855,0,0,0,1.511.546h.131v.136a19.018,19.018,0,0,1-.415,3.819,10.5,10.5,0,0,1-1.506,3.666c-.769,1.091-1.56,2.182-2.291,3.339a18.005,18.005,0,0,0-1.855,3.672,8.326,8.326,0,0,0-.442,2.029c-.038.682,0,1.413,0,2.122V347.9a9.531,9.531,0,0,0,.087,1.828,3.59,3.59,0,0,0,.857,1.538,8.488,8.488,0,0,0,2.93,2.024,16.6,16.6,0,0,0,3.382,1.009,23.168,23.168,0,0,0,3.442.387,23.485,23.485,0,0,0,6.623-.606,14.491,14.491,0,0,0,3-1.091,7.682,7.682,0,0,0,2.433-1.828,3.819,3.819,0,0,0,.715-1.277,4.7,4.7,0,0,0,.12-1.446v-8.358c0-6.939.033-12.547.044-16.454s.049-6.034.049-6.034a1.6,1.6,0,0,1,0,.4v5.635c0,3.9,0,9.514.044,16.454v9.1a3.055,3.055,0,0,1-.12.769,3.972,3.972,0,0,1-.758,1.358,7.8,7.8,0,0,1-2.5,1.893,14.875,14.875,0,0,1-3.039,1.091,23.86,23.86,0,0,1-6.612.633,23.036,23.036,0,0,1-3.481-.387,17.047,17.047,0,0,1-3.442-1.026,8.586,8.586,0,0,1-3.033-2.068,3.786,3.786,0,0,1-.922-1.637,9.274,9.274,0,0,1-.1-1.893V317.039a8.728,8.728,0,0,1,.458-2.095,18.144,18.144,0,0,1,1.888-3.732c.731-1.162,1.533-2.259,2.3-3.344a10.365,10.365,0,0,0,1.457-3.579,19.2,19.2,0,0,0,.42-3.753l.125.125a2.111,2.111,0,0,1-1.7-.627,1.527,1.527,0,0,1-.4-.846v-.884a8.031,8.031,0,0,1,0-.878,1.577,1.577,0,0,1,.42-.813,2.117,2.117,0,0,1,1.637-.589h10.944a2.084,2.084,0,0,1,1.4.469,1.549,1.549,0,0,1,.546,1.32v1.375a1.6,1.6,0,0,1-.775,1.124,2.231,2.231,0,0,1-1.287.295l.087-.087a13.678,13.678,0,0,0,1.9,7.425,45,45,0,0,1,3.186,4.91,11.828,11.828,0,0,1,1.266,3.453,7.368,7.368,0,0,1,.093.976.889.889,0,0,1,0,.316Z" transform="translate(-53.354 -190.036)"/><path class="a" d="M113.586,304.018a42.781,42.781,0,0,1-4.975.142,42.916,42.916,0,0,1-4.981-.142,44.417,44.417,0,0,1,4.981-.142A44.276,44.276,0,0,1,113.586,304.018Z" transform="translate(-59.076 -193.6)"/><path class="f" d="M114.993,341.737a3.554,3.554,0,0,0-3.41.147,12.624,12.624,0,0,1-3.273,1.413,6.3,6.3,0,0,1-4-1.02,25.268,25.268,0,0,0-3.71-2.024,7.223,7.223,0,0,0-7.441,1.757v27.026s1.484,4.61,11.936,3.89,9.629-5.341,9.629-5.341Z" transform="translate(-54.318 -209.966)"/><path class="h" d="M76.41,302.278a7.638,7.638,0,0,0-6.454-8.729.775.775,0,0,0-.546.06c-.224.153-.229.475-.207.742a9.274,9.274,0,0,0,7.2,8.183" transform="translate(-43.427 -188.903)"/><path class="f" d="M61.356,323.052c1.931,3.982,4.708,6.667,8.15,6.8.687,0,1.206-.431,1.86-.469a4.365,4.365,0,0,1,1.091.415,1.571,1.571,0,0,0,.546.131c3.557-.191,6.585-2.69,8.625-6.874,2.842-5.854,1.964-12.144-1.958-14.059a9.613,9.613,0,0,0-1.6-.627,6.758,6.758,0,0,0-1.948-.229,14.729,14.729,0,0,0-4.419,1.015l-.191.071c-3.191-1.408-5.734-1.418-8.183-.224C59.381,310.908,58.509,317.2,61.356,323.052Z" transform="translate(-39.104 -195.542)"/><path class="i" d="M62.562,318.575a3.1,3.1,0,0,1-.327-1.178,6.328,6.328,0,0,1,1.991-5.385,3.072,3.072,0,0,1,1.015-.682c0,.044-.36.295-.878.824a7.054,7.054,0,0,0-1.511,2.411,6.907,6.907,0,0,0-.415,2.815A9.762,9.762,0,0,1,62.562,318.575Z" transform="translate(-40.244 -196.995)"/><path class="i" d="M63.906,328.632c-.076,0-.207-.256-.289-.616s-.087-.66,0-.676.2.256.289.616S63.983,328.616,63.906,328.632Z" transform="translate(-40.863 -204.27)"/><path class="a" d="M90.05,292c0,.049-.731.333-1.838,1a14.368,14.368,0,0,0-1.833,1.309,16.1,16.1,0,0,0-1.937,1.964,16.363,16.363,0,0,0-1.538,2.291,14.443,14.443,0,0,0-.917,2.057c-.431,1.211-.546,2.008-.616,2a2.532,2.532,0,0,1,.06-.546,4.26,4.26,0,0,1,.131-.649,8.254,8.254,0,0,1,.235-.851,12.923,12.923,0,0,1,.878-2.117,13.769,13.769,0,0,1,3.541-4.326,12.548,12.548,0,0,1,1.9-1.282,8.219,8.219,0,0,1,.786-.4,4.981,4.981,0,0,1,.611-.256A2.4,2.4,0,0,1,90.05,292Z" transform="translate(-48.96 -188.21)"/><path class="f" d="M36.451,315.3,30.27,393.269,87.879,407.2s20.1-6.814,20.371-7.278.349-80.74.349-80.74L87.83,324.563Z" transform="translate(-25.737 -198.799)"/><g transform="translate(4.533 116.501)"><path class="j" d="M36.451,315.3,30.27,393.269,87.879,407.2s20.1-6.814,20.371-7.278.349-80.74.349-80.74L87.83,324.563Z" transform="translate(-30.27 -315.3)"/></g><path class="c" d="M172.111,130.405l-3.213,45.5a14.184,14.184,0,0,1-14.151,13.186h0a14.184,14.184,0,0,1-14.184-15.112c.284-4.332.546-7.883.546-7.883s-11.014-1.713-11.151-12.728c-.076-6.361,1.02-20.8,1.958-31.854a14.446,14.446,0,0,1,14.43-13.218H153a20.387,20.387,0,0,1,19.116,22.105Z" transform="translate(-71.039 -104.726)"/><path class="k" d="M150.276,210.719a26.593,26.593,0,0,0,14.342-4.239s-3.546,8.014-14.539,7.021Z" transform="translate(-80.186 -149.345)"/><path class="a" d="M137.36,151.973c.2.207,1.386-.676,3.082-.671s2.93.851,3.115.644c.087-.093-.109-.458-.649-.857a4.364,4.364,0,0,0-2.493-.769,4.223,4.223,0,0,0-2.455.791C137.442,151.515,137.267,151.886,137.36,151.973Z" transform="translate(-74.394 -123.823)"/><path class="a" d="M171,155.733a1.582,1.582,0,0,0,1.517,1.588,1.511,1.511,0,0,0,1.637-1.418,1.571,1.571,0,0,0-1.517-1.588A1.506,1.506,0,0,0,171,155.733Z" transform="translate(-89.693 -125.636)"/><path class="a" d="M140.18,155.733a1.577,1.577,0,0,0,1.517,1.588,1.506,1.506,0,0,0,1.637-1.418,1.566,1.566,0,0,0-1.511-1.588,1.5,1.5,0,0,0-1.642,1.418Z" transform="translate(-75.687 -125.635)"/><path class="a" d="M167.55,151.978c.2.2,1.391-.682,3.082-.676s2.93.851,3.115.644c.087-.093-.109-.458-.649-.857a4.364,4.364,0,0,0-2.493-.769,4.222,4.222,0,0,0-2.455.791C167.632,151.515,167.457,151.886,167.55,151.978Z" transform="translate(-88.114 -123.823)"/><path class="a" d="M152.754,164.63a11.643,11.643,0,0,0-2.728-.491c-.431-.049-.84-.131-.911-.426a2.182,2.182,0,0,1,.284-1.282l1.282-3.273c1.773-4.686,3.061-8.538,2.87-8.609s-1.784,3.672-3.557,8.358q-.682,1.708-1.227,3.29a2.548,2.548,0,0,0-.224,1.7,1.091,1.091,0,0,0,.715.633,2.94,2.94,0,0,0,.731.1A10.6,10.6,0,0,0,152.754,164.63Z" transform="translate(-79.461 -123.926)"/><path class="a" d="M160.945,178.51c-.273,0-.278,1.822-1.849,3.126s-3.53,1.091-3.546,1.358c0,.115.436.355,1.266.382a4.588,4.588,0,0,0,2.957-1.031,4.01,4.01,0,0,0,1.435-2.624C161.278,178.957,161.071,178.5,160.945,178.51Z" transform="translate(-82.672 -136.634)"/><path class="a" d="M166.763,142.2c.169.458,1.855.24,3.819.48s3.6.78,3.857.371c.12-.2-.164-.633-.807-1.091a6.481,6.481,0,0,0-2.859-1,6.41,6.41,0,0,0-3.006.355C167.057,141.621,166.692,141.981,166.763,142.2Z" transform="translate(-87.763 -119.548)"/><path class="a" d="M137.774,143.009c.3.387,1.468,0,2.87-.033s2.586.262,2.864-.142c.115-.2-.071-.584-.589-.944a4.135,4.135,0,0,0-4.615.142C137.807,142.425,137.643,142.824,137.774,143.009Z" transform="translate(-74.574 -119.703)"/><path class="c" d="M200.065,163.711c.191-.082,7.572-2.237,7.332,5.292s-7.752,5.734-7.758,5.521S200.065,163.711,200.065,163.711Z" transform="translate(-102.709 -129.751)"/><path class="k" d="M204,173.762c.033,0,.131.1.349.207a1.3,1.3,0,0,0,.977.049,3.232,3.232,0,0,0,1.593-2.864,4.239,4.239,0,0,0-.306-1.888,1.522,1.522,0,0,0-.955-1.042.666.666,0,0,0-.786.338c-.109.207-.065.36-.1.371s-.158-.131-.087-.442a.873.873,0,0,1,.311-.464.993.993,0,0,1,.731-.169,1.86,1.86,0,0,1,1.337,1.211,4.517,4.517,0,0,1,.387,2.117c-.1,1.517-.922,2.908-2.019,3.191a1.413,1.413,0,0,1-1.195-.24C204,173.931,204,173.779,204,173.762Z" transform="translate(-104.69 -131.788)"/><path class="a" d="M179.283,137.168a3.96,3.96,0,0,0-3.622,1.86c-.491,1.075-.6,2.291-1.091,3.366s-1.593,2.051-2.728,1.778a2.313,2.313,0,0,1-1.566-1.718,6.263,6.263,0,0,1,0-2.428c.442-3.519,1.178-7,1.32-10.545a18.085,18.085,0,0,0-2.22-10.24c-1.86-3.017-5.275-5.237-8.81-4.954-2.34.191-4.484,1.413-6.808,1.735a9.187,9.187,0,0,1-7.638-2.548c-.256-.251-1.429-1.031-1.429-1.031a4.306,4.306,0,0,1,.791-2.324c4.61-4.266,12.924-5.455,19.018-3.922s11.806,5.832,14.424,11.544,1.844,13.639.4,19.427" transform="translate(-77.736 -103.48)"/><path class="a" d="M130.512,124.918c.987,2.286,3.508,3.617,6,3.868a19.475,19.475,0,0,0,7.348-1.091,56.049,56.049,0,0,1,11.32-1.669c.371,0,.818,0,1.02-.311.262-.42-.158-.927-.546-1.227-3.273-2.575-11.222-4.152-15.39-4.326s-8.538,1.637-10.8,5.123" transform="translate(-70.819 -110.111)"/><path class="f" d="M133.37,116.84s28.914-9.274,41.4,15.706c0,0,1.866-6.257,1.866-9.612,0-2.237-1.337-15.581-15.062-19.776C161.569,103.157,140.888,95.269,133.37,116.84Z" transform="translate(-72.592 -101.75)"/><g transform="translate(60.778)"><path class="d" d="M133.37,116.84a13.42,13.42,0,0,1,9.187-4.168c8.527-.382,24.478,4.413,32.187,19.874,0,0,1.866-6.257,1.866-9.612,0-2.237-1.337-15.581-15.062-19.776C161.569,103.157,140.888,95.269,133.37,116.84Z" transform="translate(-133.37 -101.75)"/></g><path class="l" d="M161.856,130.126A54.467,54.467,0,0,0,145.02,114c-6.623-4.152-17.6-8.254-25.171-10.267a16.434,16.434,0,0,0-6.956-.726c-2.319.4-4.588,1.942-5.161,4.222-.72,2.853,4.364,7.256,6.727,8.985a77.114,77.114,0,0,0,7.234,4.272s-.065-5.292,8.407-6.383C141.616,112.625,161.856,130.126,161.856,130.126Z" transform="translate(-60.909 -102.259)"/><path class="f" d="M156.647,109.751a27.284,27.284,0,0,0-8.347-2.837,10.491,10.491,0,0,1,2.269-1.364,21.587,21.587,0,0,1,6.5,2.182Z" transform="translate(-79.377 -103.477)"/><path class="d" d="M224.23,249.7s-7.9,9.029-7.027,21.593c.12,1.74.207,4.168.42,5.9,1.331,10.78,3.393,20.785,3.393,20.785h.753l27.544-6.8s-4.152-23.911-5.106-27.086c-3.05-10.163-13.508-15.755-13.508-15.755Z" transform="translate(-110.66 -168.369)"/><path class="a" d="M156.131,402.982v-6.214c0-4.021,0-9.82.033-17.086.049-14.506.12-34.691.2-57.457l.175.136-10.474,2.728-10.289,2.668.1-.136c.142,11.413.1,22.182.049,31.914s-.109,18.423-.153,25.69,0,13.093,0,17.13v4.626c0-1.091-.038-2.619-.071-4.626-.049-4.021-.082-9.863-.076-17.13s.06-15.963.093-25.69.065-20.5-.082-31.909v-.115l.109-.027,10.283-2.668,10.48-2.728.18-.049v.185c-.12,22.765-.224,42.956-.295,57.457-.049,7.245-.093,13.066-.12,17.086,0,2-.033,3.551-.044,4.61v1.2A.661.661,0,0,1,156.131,402.982Z" transform="translate(-73.618 -201.862)"/><path class="f" d="M144.394,216.858s-1.091,10.48,2.433,12.111c3.977,1.833,7.943.038,10.365-1.517,6.5-4.146,16.154-15.663,16.154-15.663l6.547,8.5s-16.486,19.814-19.8,19.683c-2.182-.082-5.537-2.182-7.638-3.661a14.185,14.185,0,0,1-3.039-2.875l-2.853-3.628a21.5,21.5,0,0,0-8.434,6.9s-.949-7.338.758-10.665S144,216.967,144,216.967Z" transform="translate(-74.636 -151.758)"/><path class="a" d="M138.41,233.554a.682.682,0,0,1-.065.18c-.049.131-.12.3-.213.513a11.456,11.456,0,0,0-.486,2.084,32.6,32.6,0,0,0,0,7.856l-.2-.038a14.484,14.484,0,0,1,3.535-4.026,26.318,26.318,0,0,1,5.226-3.311l.087-.044.065.076c1.151,1.337,2.368,2.728,3.65,4.141a26.262,26.262,0,0,0,4.3,3.972,10.765,10.765,0,0,0,2.439,1.293,8.025,8.025,0,0,0,1.309.355,5.357,5.357,0,0,0,1.32.049A8.3,8.3,0,0,0,163.9,244.4h0L175.19,232.37l3.273-3.453.878-.911.229-.235.087-.071-.065.087-.218.251-.846.938-3.219,3.508-11.205,12.1h0A12.139,12.139,0,0,1,162,246.09a6.546,6.546,0,0,1-2.564.818,6,6,0,0,1-1.4-.049,7.94,7.94,0,0,1-1.358-.366,11.216,11.216,0,0,1-2.515-1.326,26.383,26.383,0,0,1-4.364-4.015c-1.287-1.418-2.5-2.815-3.65-4.157l.158.033a26.536,26.536,0,0,0-5.183,3.273,14.457,14.457,0,0,0-3.464,3.928l-.164.284-.033-.322a31.288,31.288,0,0,1,.087-7.9,10.736,10.736,0,0,1,.546-2.079c.1-.229.185-.393.24-.507A1.3,1.3,0,0,1,138.41,233.554Z" transform="translate(-74.358 -158.989)"/><g class="e" transform="translate(64.355 69.857)"><path d="M140.026,243.34a1.4,1.4,0,0,0,.4,1.6,1.331,1.331,0,0,0,1.358-.246,5.068,5.068,0,0,0,.917-1.118,11.916,11.916,0,0,1,2.329-2.5c.878-.709,2.084-1.309,3.093-.807a3.491,3.491,0,0,1,1.364,1.74c1.369,2.8,3.011,5.646,5.69,7.245a10.888,10.888,0,0,0,9.072.627,17.927,17.927,0,0,0,7.485-5.494,52.919,52.919,0,0,0,5.177-7.823,20.14,20.14,0,0,0,2.864-6.765c-.338.191-1.135,1.418-1.473,1.609,0,0-12.717,14-13.911,14.73s-4.49,5.559-13.824-4.91l-3.088-3.35S141.6,240.733,140.026,243.34Z" transform="translate(-139.925 -229.8)"/></g><rect class="m" width="14.146" height="4.272" transform="translate(84.531 111.466) rotate(8.72)"/><path class="c" d="M204.333,327.84l-21.822,5.275,2.52,20.583-41.789,31.385c-1.669.235-3.382.5-4.332.742-2.286.546-6.323,6.3-7.463,6.874l-8.145,6.285s-.715,2.859,3,2.286,7.856-3.426,8.287-3.426,1.729.867,1.091,2.728c-.546,1.637-2.782,7.267-2.782,7.267l-2.766,5.074s11.958.393,15.275-4.042c2.269-3.011,9.274-11.549,9.274-11.549s49.192-24.2,52.143-29.268C210.847,361.156,204.333,327.84,204.333,327.84Z" transform="translate(-67.992 -204.498)"/><path class="k" d="M245.328,383.885a13.592,13.592,0,0,0-.1-2.248,7.834,7.834,0,0,0-7.392-6.688,13.536,13.536,0,0,0-2.248.125,2.078,2.078,0,0,1,.589-.18,6.945,6.945,0,0,1,1.669-.147,7.758,7.758,0,0,1,7.578,6.863,6.955,6.955,0,0,1,0,1.675A2.084,2.084,0,0,1,245.328,383.885Z" transform="translate(-119.046 -225.814)"/><path class="n" d="M149.594,469.69a6.272,6.272,0,0,1-.284,1.375,14.73,14.73,0,0,1-1.211,3.18,6.339,6.339,0,0,1-2.3,2.515,3.458,3.458,0,0,1-.966.393.823.823,0,0,1-.382.038,8.4,8.4,0,0,0,1.244-.6,6.853,6.853,0,0,0,2.182-2.482,19.018,19.018,0,0,0,1.238-3.1A8.051,8.051,0,0,1,149.594,469.69Z" transform="translate(-77.627 -268.963)"/><path class="n" d="M160.705,466.2a5.417,5.417,0,0,1-.42,1.326,26.132,26.132,0,0,1-1.429,3.044,26.56,26.56,0,0,1-1.811,2.837,5.672,5.672,0,0,1-.895,1.091,8.359,8.359,0,0,1,.731-1.184c.469-.715,1.091-1.718,1.724-2.859s1.14-2.182,1.495-2.984A8.086,8.086,0,0,1,160.705,466.2Z" transform="translate(-82.944 -267.377)"/><path class="a" d="M162.106,400.9a3.089,3.089,0,0,1,.1.7c.049.447.087,1.091.109,1.9a37.441,37.441,0,0,1-1.8,12.417c-.251.764-.469,1.38-.644,1.795a3.459,3.459,0,0,1-.289.638,3.148,3.148,0,0,1,.185-.676c.142-.426.333-1.047.546-1.817a44.732,44.732,0,0,0,1.331-6.116,45.731,45.731,0,0,0,.458-6.241v-1.9a3.743,3.743,0,0,1,.005-.7Z" transform="translate(-84.503 -237.701)"/><path class="a" d="M142.54,412.91a14.558,14.558,0,0,1,.687,1.718c.4,1.091.966,2.542,1.637,4.152s1.293,3.055,1.757,4.1a15,15,0,0,1,.715,1.708,9.406,9.406,0,0,1-.895-1.637c-.513-1.026-1.173-2.46-1.838-4.075s-1.195-3.1-1.549-4.2A9.984,9.984,0,0,1,142.54,412.91Z" transform="translate(-76.759 -243.159)"/><path class="a" d="M107.886,436.619a1.429,1.429,0,0,1-.344.1l-1,.24c-.436.1-.966.224-1.593.327s-1.331.256-2.128.355-1.637.235-2.591.316-1.942.153-3,.213a57.167,57.167,0,0,1-13.682-1.042c-1.031-.224-2.019-.42-2.924-.671s-1.751-.469-2.515-.7-1.451-.469-2.051-.671-1.091-.4-1.522-.546l-.955-.382A2.525,2.525,0,0,1,73.26,434a1.354,1.354,0,0,1,.349.1l.971.333c.415.153.933.338,1.533.546s1.287.426,2.057.627,1.6.458,2.515.666,1.888.431,2.919.644a66.213,66.213,0,0,0,6.781.906,65.193,65.193,0,0,0,6.841.131c1.053-.055,2.051-.093,2.984-.185s1.795-.18,2.586-.278,1.5-.218,2.128-.316,1.162-.191,1.6-.278l1.009-.185a1.593,1.593,0,0,1,.355-.087Z" transform="translate(-45.274 -252.743)"/><path class="a" d="M128.716,419.124a14.615,14.615,0,0,1-2.591-1.249,15.117,15.117,0,0,1-2.455-1.495,13.975,13.975,0,0,1,2.591,1.249A14.406,14.406,0,0,1,128.716,419.124Z" transform="translate(-68.183 -244.736)"/><path class="a" d="M249.273,292.658l-.136.044-.4.109-1.56.4-5.87,1.451-20.294,4.91-.147.033v-.147c-.573-3.748-1.358-7.79-2.117-12-.5-2.81-.927-5.565-1.222-8.238s-.426-5.275-.464-7.752a41.87,41.87,0,0,1,.409-7.01,20.185,20.185,0,0,1,1.789-5.854,14.664,14.664,0,0,1,3.011-4.053,11.811,11.811,0,0,1,3.148-2.149,10.524,10.524,0,0,1,2.3-.726l.622-.076a1.033,1.033,0,0,1,.213,0,.96.96,0,0,1-.213.044l-.611.109a10.6,10.6,0,0,0-2.264.764,12,12,0,0,0-3.088,2.182,14.729,14.729,0,0,0-2.94,4.026,20.239,20.239,0,0,0-1.735,5.8,42.116,42.116,0,0,0-.382,6.977c.044,2.466.185,5.052.48,7.719s.731,5.417,1.227,8.221c.753,4.206,1.533,8.254,2.106,12l-.169-.115,20.321-4.828,5.886-1.375,1.571-.355.409-.087A.645.645,0,0,1,249.273,292.658Z" transform="translate(-110.618 -169.846)"/></g></g></svg>