<svg xmlns="http://www.w3.org/2000/svg" width="273.054" height="251.233" viewBox="0 0 273.054 251.233"><defs><style>.a{fill:rgba(236,169,0,0.07);}.b{fill:#263238;}.c{fill:#fafafa;}.d{fill:#f5f5f5;}.e{opacity:0.3;}.f{fill:#eca900;}.g,.i{fill:#fff;}.h{fill:#455a64;}.i{font-size:7px;font-family:Muli-Bold, Muli;font-weight:700;}.j{fill:#c49882;}.k{fill:#b20e10;}.l{opacity:0.6;}.m{fill:#eb996e;}.n{fill:#e0ac91;}.o{fill:#ba7c5b;}.p{opacity:0.5;}</style></defs><g transform="translate(-16.35 -42.384)"><g transform="translate(29.774 42.384)"><path class="a" d="M272.268,70.911c-7.675-12.386-15.965-18.459-32.752-21.34-13.5-2.347-24.814,4.981-32.183,9.124-9.681,5.433-13.307,17.743-13.2,28.844s3.045,22.085,2.558,33.181c-1.109,25.435-22.519,48.454-47.814,51.393-20.061,2.347-40.069-6.607-60.188-4.87A57.753,57.753,0,0,0,52.085,184.91c-7.528,7.956-12.773,18.453-12.856,29.4-.1,13.225,7.282,25.617,17.045,34.542s21.78,14.95,33.621,20.818l37.253,7.815c47.527,10.127,112.567-14.751,139-55.547S297.85,112.235,272.268,70.911Z" transform="translate(-39.228 -45.167)"/><path class="a" d="M149.006,54.844c-9.323-10.925-25.975-14.827-40.233-11.066-6.859.587-12.533,4.489-17.679,9.095-8.684,7.78-12.674,20.29-10.6,31.761a38.838,38.838,0,0,0,20.307,26.99c15.472,7.991,36.249,4.36,47.65-8.8S160.295,68.1,149.006,54.844Z" transform="translate(-56.058 -42.384)"/></g><g transform="translate(16.35 287.554)"><path class="b" d="M289.4,460.383c0,.082-61.127.153-136.518.153s-136.536-.07-136.536-.153,61.116-.153,136.536-.153S289.4,460.295,289.4,460.383Z" transform="translate(-16.35 -460.23)"/></g><g transform="translate(100.882 57.942)"><path class="b" d="M255.279,298.664H177.436a17.381,17.381,0,0,1-17.016-17.415l.827-195.44A16.975,16.975,0,0,1,178.3,68.9l77.961.364a16.975,16.975,0,0,1,16.9,17.051l-.827,195.439a16.975,16.975,0,0,1-17.057,16.91Z" transform="translate(-160.42 -68.9)"/><path class="c" d="M259.8,80.752l-15.115-.07a3.761,3.761,0,0,0-3.691,3.82v2.74a3.755,3.755,0,0,1-3.685,3.826l-29.484-.135a3.755,3.755,0,0,1-3.655-3.849V84.337a3.761,3.761,0,0,0-3.655-3.855H195.2l-13.19-.082A11.888,11.888,0,0,0,170.061,92.24L169.24,283a11.9,11.9,0,0,0,11.841,11.946l77.8.358a11.9,11.9,0,0,0,11.952-11.841l.8-190.763A11.887,11.887,0,0,0,259.8,80.752Z" transform="translate(-164.065 -73.652)"/><g transform="translate(8.601 14.637)"><path class="b" d="M276.423,102.509c0,.053-2.218.123-4.946.141s-4.946,0-4.946-.059,2.212-.123,4.946-.147S276.423,102.45,276.423,102.509Z" transform="translate(-264.864 -98.313)"/><path class="b" d="M276.457,106.819c0,.059-2.212.123-4.94.147s-4.946,0-4.946-.065,2.212-.123,4.94-.147S276.457,106.76,276.457,106.819Z" transform="translate(-264.88 -100.094)"/><path class="b" d="M276.493,111.129c0,.059-2.212.123-4.946.147s-4.946,0-4.946-.065,2.212-.123,4.946-.147S276.493,111.07,276.493,111.129Z" transform="translate(-264.893 -101.876)"/><path class="d" d="M294.889,423.2a2.877,2.877,0,0,1-.628-.7,5.668,5.668,0,0,1-.951-2.077,10.2,10.2,0,0,1-.188-2.265,2.846,2.846,0,0,1,.076-.933,2.864,2.864,0,0,1,.141.927,16.784,16.784,0,0,0,.264,2.2,7.326,7.326,0,0,0,.833,2.03,3.679,3.679,0,0,1,.452.816Z" transform="translate(-275.849 -228.403)"/><path class="d" d="M304.72,422.595c-.088,0,.041-1.42-.147-3.145s-.587-3.08-.51-3.11A10.35,10.35,0,0,1,304.72,422.595Z" transform="translate(-280.371 -228.035)"/><path class="d" d="M314.542,422.445c-.088-.035.329-.98.428-2.224s-.129-2.247-.041-2.271A4.964,4.964,0,0,1,314.542,422.445Z" transform="translate(-284.7 -228.7)"/><g class="e" transform="translate(23.376 187.777)"><path d="M303.53,415.44l.047.088h0Z" transform="translate(-303.53 -415.44)"/></g><rect class="d" width="44.546" height="66.778" transform="translate(0 27.507)"/><rect class="d" width="44.546" height="66.778" transform="translate(0 99.319)"/><rect class="d" width="44.546" height="62.348" transform="translate(48.788 86.71)"/><rect class="d" width="44.546" height="55.154" transform="translate(48.788 27.507)"/><path class="c" d="M303.724,167.433v18.512c0,.81-.651,1.649-1.848,2.282a11.313,11.313,0,0,1-5.134,1.068h-.029c-4.371,0-6.982-1.725-6.982-3.35V167.4c0-1.807,1.332-3.691,2.67-5.557a8.108,8.108,0,0,0,1.174-4.107v-.34h-.123a.974.974,0,0,1-1.044-.892v-.78a.98.98,0,0,1,1.044-.9h6.566a1.068,1.068,0,0,1,.962.546.821.821,0,0,1,.082.358v.78a.98.98,0,0,1-1.044.892h-.153v.34a7.859,7.859,0,0,0,1.174,4.107c1.338,1.866,2.664,3.749,2.67,5.557Z" transform="translate(-274.451 -119.959)"/><path class="b" d="M303.554,167.342v-.188a5.354,5.354,0,0,0-.076-.552,7.182,7.182,0,0,0-.775-1.995,27.923,27.923,0,0,0-1.9-2.857,8.138,8.138,0,0,1-1.174-4.43v-.106h.059a.945.945,0,0,0,1.056-.7v-.786a.722.722,0,0,0-.264-.645,1.045,1.045,0,0,0-.71-.229h-6.425a1.044,1.044,0,0,0-.81.282.721.721,0,0,0-.188.37,4.19,4.19,0,0,0,0,.481v.493a.68.68,0,0,0,.182.381,1.032,1.032,0,0,0,.845.3h.135v.147a11.366,11.366,0,0,1-.246,2.253,6.166,6.166,0,0,1-.886,2.183,17.943,17.943,0,0,0-2.423,4.107,5.059,5.059,0,0,0-.258,1.173v18.107a5.556,5.556,0,0,0,.047,1.056,1.988,1.988,0,0,0,.487.874,4.911,4.911,0,0,0,1.7,1.174,11.4,11.4,0,0,0,3.984.816,13.817,13.817,0,0,0,3.873-.346,6.131,6.131,0,0,0,3.157-1.69,2.094,2.094,0,0,0,.411-.728,2.744,2.744,0,0,0,.07-.833v-4.905c0-4.066.035-7.358.047-9.658v-2.629c0-.622.029-.915.029-.915a7.375,7.375,0,0,1,.035.915c0,.622,0,1.5.029,2.629,0,2.3,0,5.592.047,9.658v4.905a3,3,0,0,1-.07.9,2.348,2.348,0,0,1-.458.821,6.284,6.284,0,0,1-3.286,1.76,13.943,13.943,0,0,1-3.949.37,11.665,11.665,0,0,1-4.107-.833,5.122,5.122,0,0,1-1.807-1.226,2.346,2.346,0,0,1-.557-1,5.691,5.691,0,0,1-.059-1.127V166.99a5.161,5.161,0,0,1,.27-1.244,18,18,0,0,1,2.47-4.172,8.021,8.021,0,0,0,1.091-4.271l.141.141a1.3,1.3,0,0,1-1.044-.393.968.968,0,0,1-.252-.528c0-.205,0-.352,0-.528a4.062,4.062,0,0,1,0-.522.974.974,0,0,1,.264-.51,1.291,1.291,0,0,1,1-.364h6.425a1.291,1.291,0,0,1,.851.288.974.974,0,0,1,.34.816v.816a1.138,1.138,0,0,1-1.262.868l.1-.1a7.95,7.95,0,0,0,1.1,4.342,27.816,27.816,0,0,1,1.866,2.9,6.72,6.72,0,0,1,.728,2.036,4.172,4.172,0,0,1,.053.557.63.63,0,0,1,.088.223Z" transform="translate(-274.282 -119.868)"/><path class="b" d="M302.277,159.062a28.054,28.054,0,0,1-5.867,0A28.064,28.064,0,0,1,302.277,159.062Z" transform="translate(-277.212 -121.65)"/><path class="f" d="M303.55,179.776a2.1,2.1,0,0,0-2,.088,7.481,7.481,0,0,1-1.925.827,3.655,3.655,0,0,1-2.347-.587,14.8,14.8,0,0,0-2.177-1.173,4.236,4.236,0,0,0-4.371,1.027V195.8s.874,2.7,7.012,2.282,5.65-3.133,5.65-3.133Z" transform="translate(-274.865 -129.832)"/><path class="f" d="M389.813,276.283a1.291,1.291,0,0,0-1.232.141c-.088.059-.182.129-.27.2a16.87,16.87,0,0,1-10.3,3.3c-7.211,0-13.184-4.043-14.252-9.323v-1a.722.722,0,1,0-1.437,0V272.4a.708.708,0,0,0,.041.194,8.648,8.648,0,0,0-.769,3.485c0,6.1,6.454,11.048,14.44,11.048,6.695,0,12.322-3.479,13.965-8.214a.129.129,0,0,0,.035-.076,2.933,2.933,0,0,0,.311-1.215,1.379,1.379,0,0,0-.528-1.338Z" transform="translate(-304.148 -167.072)"/><g class="e" transform="translate(59.068 106.254)"><path d="M364.36,276.5s6.8,15.643,25.23,4.694c0,0-4.747,4.929-10.937,6.126C373.044,288.393,364.736,285.231,364.36,276.5Z" transform="translate(-364.36 -276.5)"/></g><path class="b" d="M409.432,282.234c-.111.27-.552.346-.98.164s-.687-.552-.587-.821.552-.34.98-.158S409.549,281.965,409.432,282.234Z" transform="translate(-323.262 -172.237)"/><path class="b" d="M415.078,106.02a.422.422,0,0,1-.147,0h-1.96l-5.181.047h-.041v-.041c-.041-.276-.082-.587-.129-.857-.358-2.511-.675-4.753-.886-6.22H405a.5.5,0,0,1-.123,0h1.9v.029c.217,1.461.552,3.7.927,6.208.041.293.082.587.123.857l-.047-.041h7.287Z" transform="translate(-322.038 -96.873)"/><path class="b" d="M409.01,105.376h2.124l5.375-.053-.047.041c.153-.909.323-1.889.493-2.9.088-.522.176-1.039.264-1.526l.047.059h-6.337l6.337-.053h.059V101l-.258,1.52c-.176,1.015-.346,1.995-.5,2.934v.035h-7.54Z" transform="translate(-323.48 -97.695)"/><path class="b" d="M411.935,113.881a.569.569,0,0,0-.041-.176.7.7,0,0,0-.27-.376.71.71,0,0,0-.651-.088.686.686,0,0,0,0,1.285.675.675,0,0,0,.651-.094.716.716,0,0,0,.264-.376c.035-.111.035-.176.041-.176a.369.369,0,0,1,0,.182.757.757,0,0,1-.264.428.767.767,0,1,1,.006-1.215.728.728,0,0,1,.264.422.335.335,0,0,1,0,.182Z" transform="translate(-324.328 -102.726)"/><path class="b" d="M419.942,113.827a.523.523,0,0,0-.041-.17.681.681,0,0,0-.27-.376.7.7,0,1,0,.006,1.085.769.769,0,0,0,.27-.381c.029-.111.029-.176.035-.176a.367.367,0,0,1,0,.182.739.739,0,0,1-.258.428.769.769,0,0,1-1.244-.587.78.78,0,0,1,.51-.733.757.757,0,0,1,.722.117.686.686,0,0,1,.264.422A.333.333,0,0,1,419.942,113.827Z" transform="translate(-327.641 -102.702)"/><circle class="f" cx="2.077" cy="2.077" r="2.077" transform="matrix(0.977, -0.211, 0.211, 0.977, 90.913, 0.876)"/><path class="g" d="M422.8,98.27v1.578h-.37V98.563h-.317V98.27Z" transform="translate(-329.158 -96.592)"/><rect class="f" width="76.94" height="20.196" rx="10.098" transform="translate(10.901 176.13)"/><g class="e" transform="translate(10.901 176.13)"><rect width="76.94" height="20.196" rx="10.098"/></g><rect class="f" width="76.94" height="20.196" rx="10.098" transform="translate(7.915 176.13)"/><path class="h" d="M298.417,296.435a8.631,8.631,0,0,0-7.27-9.857.669.669,0,0,0-.851.9,10.421,10.421,0,0,0,8.109,9.2" transform="translate(-274.66 -174.391)"/><path class="f" d="M282.243,318.715c2.177,4.489,5.281,7.51,9.183,7.657.775,0,1.361-.481,2.1-.528a4.78,4.78,0,0,1,1.238.469,1.878,1.878,0,0,0,.651.147c4-.217,7.416-3.034,9.717-7.745,3.2-6.6,2.212-13.689-2.206-15.842a10.56,10.56,0,0,0-1.813-.7,7.147,7.147,0,0,0-2.194-.258,16.329,16.329,0,0,0-5.023,1.132l-.217.082c-3.591-1.59-6.454-1.6-9.241-.252C280.019,305.026,279.039,312.114,282.243,318.715Z" transform="translate(-270.579 -180.741)"/><path class="c" d="M283.409,313.422a3.521,3.521,0,0,1-.364-1.326,7.129,7.129,0,0,1,2.241-6.067,3.326,3.326,0,0,1,1.138-.769c.029.041-.411.329-.992.921a7.8,7.8,0,0,0-2.177,5.867C283.316,312.9,283.462,313.4,283.409,313.422Z" transform="translate(-271.669 -182.131)"/><path class="c" d="M284.806,323.48c-.082,0-.223-.293-.317-.692s-.1-.745,0-.769.223.293.317.7S284.888,323.463,284.806,323.48Z" transform="translate(-272.255 -189.056)"/><path class="b" d="M312.857,285c0,.059-.833.376-2.077,1.121a17.411,17.411,0,0,0-2.071,1.473,18.145,18.145,0,0,0-2.159,2.218,17.94,17.94,0,0,0-1.76,2.582,16.966,16.966,0,0,0-1.033,2.318c-.487,1.373-.628,2.265-.687,2.253a2.456,2.456,0,0,1,.07-.634,5.359,5.359,0,0,1,.147-.733,9.61,9.61,0,0,1,.264-.951,14.448,14.448,0,0,1,.992-2.388,15.719,15.719,0,0,1,3.99-4.876,15.09,15.09,0,0,1,2.124-1.443,8.967,8.967,0,0,1,.886-.446,6.469,6.469,0,0,1,.686-.293A2.838,2.838,0,0,1,312.857,285Z" transform="translate(-279.964 -173.758)"/><path class="f" d="M391.589,174.959c-3.585-5-11.2-8.426-17.379-7.5-5.011.745-9.447,3.075-11.876,8.05a2.265,2.265,0,0,0,1.76,3.256,103.184,103.184,0,0,0,25.13-.082c1.291-.164,2.816-.522,2.9-2.112A2.558,2.558,0,0,0,391.589,174.959Z" transform="translate(-304.357 -125.12)"/><path class="b" d="M377.371,175.719a2.876,2.876,0,0,1-.628-.7,5.715,5.715,0,0,1-.95-2.077,10.2,10.2,0,0,1-.188-2.265,3.115,3.115,0,0,1,.076-.939,2.76,2.76,0,0,1,.141.927,17,17,0,0,0,.27,2.206,6.984,6.984,0,0,0,.833,2.03A3.635,3.635,0,0,1,377.371,175.719Z" transform="translate(-309.936 -126.127)"/><path class="b" d="M387.211,175.1c-.094,0,.035-1.42-.147-3.145s-.587-3.08-.51-3.11a7.938,7.938,0,0,1,.81,3.075A8.072,8.072,0,0,1,387.211,175.1Z" transform="translate(-314.46 -125.759)"/><path class="b" d="M396.992,174.965c-.082-.035.329-.986.428-2.23s-.129-2.247-.041-2.265A4.964,4.964,0,0,1,396.992,174.965Z" transform="translate(-318.773 -126.429)"/><g class="e" transform="translate(71.765 42.592)"><path d="M386,168l.047.088h0Z" transform="translate(-386 -168)"/></g><g class="e" transform="translate(71.166 42.657)"><path d="M385.631,168.11a5.328,5.328,0,0,0,.88,6.29A8.607,8.607,0,0,0,385.631,168.11Z" transform="translate(-384.98 -168.11)"/></g><g class="e" transform="translate(64.632 43.83)"><path d="M375.924,174.992a8.215,8.215,0,0,1-1-3.35,4.963,4.963,0,0,0-.223-1.531,3.9,3.9,0,0,0-.851,2.723,3.961,3.961,0,0,0,1.349,2.67,1.027,1.027,0,0,0,.411.235.393.393,0,0,0,.417-.158C376.135,175.4,376.03,175.174,375.924,174.992Z" transform="translate(-373.843 -170.11)"/></g><g class="e" transform="translate(77.053 43.647)"><path d="M396.677,170.655h0a1.6,1.6,0,0,0-.176-.587.528.528,0,0,0-.5-.27c-.276.047-.411.358-.493.628a6.911,6.911,0,0,0-.4,3.65c.065.276.246.587.534.587s.364-.235.464-.428A5.926,5.926,0,0,0,396.677,170.655Z" transform="translate(-395.013 -169.797)"/></g><path class="b" d="M280.348,232.4v.552h-.4v-.546a2.124,2.124,0,0,1-1.2-.411l.217-.493a1.942,1.942,0,0,0,.986.37v-.98c-.546-.135-1.132-.311-1.132-1,0-.5.364-.939,1.132-1.009V228.3h.4v.546a2.165,2.165,0,0,1,1,.3l-.205.5a2.006,2.006,0,0,0-.792-.264v.992c.546.129,1.138.305,1.138.986C281.486,231.891,281.116,232.319,280.348,232.4Zm-.4-2.106v-.874c-.346.053-.5.235-.5.446S279.655,230.213,279.943,230.295Zm.915,1.138c0-.241-.217-.358-.51-.44v.868C280.706,231.809,280.858,231.644,280.858,231.433Z" transform="translate(-269.91 -150.327)"/><path class="b" d="M287.467,229.36V232.8h-.64v-2.9H286.1v-.534Z" transform="translate(-272.951 -150.765)"/><path class="b" d="M290.37,234.265a1.122,1.122,0,0,1-.111.428l-.252.692h-.4l.2-.757a.37.37,0,0,1-.229-.364.4.4,0,1,1,.792,0Z" transform="translate(-274.387 -152.607)"/><path class="b" d="M294.032,231.742c0,.587-.434,1.109-1.361,1.109a2.177,2.177,0,0,1-1.291-.4l.27-.5a1.637,1.637,0,0,0,1.015.34c.452,0,.728-.2.728-.528s-.217-.534-.927-.534h-.827l.176-1.872h2.018v.534h-1.5l-.076.8h.329C293.627,230.692,294.032,231.132,294.032,231.742Z" transform="translate(-275.133 -150.765)"/><path class="b" d="M296.53,231.05c0-1.132.622-1.76,1.438-1.76s1.438.64,1.438,1.76-.616,1.76-1.438,1.76S296.53,232.183,296.53,231.05Zm2.236,0c0-.833-.329-1.215-.8-1.215s-.792.381-.792,1.215.323,1.215.792,1.215S298.766,231.878,298.766,231.05Z" transform="translate(-277.261 -150.736)"/><path class="b" d="M305.834,242.583c0,.088-6.308.153-14.082.153s-14.082-.064-14.082-.153,6.308-.153,14.082-.153S305.834,242.5,305.834,242.583Z" transform="translate(-269.468 -156.166)"/><path class="b" d="M290.78,246.493c0,.088-2.934.153-6.542.153s-6.548-.065-6.548-.153,2.934-.153,6.548-.153S290.78,246.41,290.78,246.493Z" transform="translate(-269.476 -157.782)"/><path class="b" d="M364.555,208.446V209h-.381v-.546a2.171,2.171,0,0,1-1.173-.4l.217-.5a1.872,1.872,0,0,0,.986.376v-.986c-.546-.129-1.132-.311-1.132-.992,0-.5.364-.939,1.132-1.015v-.552h.4v.546a2.054,2.054,0,0,1,1,.3l-.205.493a2.007,2.007,0,0,0-.792-.264v.992c.546.135,1.138.305,1.138.992A1.151,1.151,0,0,1,364.555,208.446Zm-.4-2.1v-.874c-.352.053-.5.229-.5.446s.211.346.522.428Zm.915,1.132c0-.241-.217-.352-.51-.434v.868C364.913,207.859,365.065,207.678,365.065,207.478Z" transform="translate(-304.73 -140.442)"/><path class="b" d="M372.94,208.238v.54H370.4v-.428l1.367-1.3c.334-.323.393-.522.393-.716,0-.311-.217-.493-.64-.493a.968.968,0,0,0-.8.358l-.446-.346a1.584,1.584,0,0,1,1.3-.587c.751,0,1.232.376,1.232.986a1.379,1.379,0,0,1-.587,1.085l-.921.88Z" transform="translate(-307.735 -140.809)"/><path class="b" d="M376.308,210.329a1.125,1.125,0,0,1-.111.422l-.252.692h-.4l.2-.751a.376.376,0,0,1-.235-.364.4.4,0,0,1,.8,0Z" transform="translate(-309.9 -142.736)"/><path class="b" d="M380.03,208.238v.54h-2.541v-.428l1.367-1.3c.334-.323.393-.522.393-.716,0-.311-.217-.493-.64-.493a.968.968,0,0,0-.8.358l-.446-.346a1.584,1.584,0,0,1,1.309-.587c.745,0,1.226.376,1.226.986a1.379,1.379,0,0,1-.587,1.085l-.921.88Z" transform="translate(-310.665 -140.808)"/><path class="b" d="M384.932,207.768c0,.587-.434,1.1-1.361,1.1a2.141,2.141,0,0,1-1.291-.4l.27-.493a1.631,1.631,0,0,0,1.009.334c.458,0,.728-.2.728-.522s-.211-.54-.921-.54h-.833l.182-1.872h2.018v.54h-1.479l-.076.792h.329C384.527,206.712,384.932,207.158,384.932,207.768Z" transform="translate(-312.698 -140.855)"/><path class="b" d="M390,218.613c0,.082-6.308.153-14.082.153s-14.082-.07-14.082-.153,6.313-.153,14.082-.153S390,218.53,390,218.613Z" transform="translate(-304.251 -146.261)"/><path class="b" d="M374.97,222.523c0,.082-2.934.153-6.548.153s-6.542-.07-6.542-.153,2.934-.153,6.542-.153S374.97,222.44,374.97,222.523Z" transform="translate(-304.268 -147.876)"/><path class="b" d="M278.428,354.128v.552h-.4v-.552a2.141,2.141,0,0,1-1.2-.411l.223-.493a1.866,1.866,0,0,0,.98.37v-.98c-.546-.135-1.127-.311-1.127-.992,0-.5.364-.939,1.127-1.015v-.557h.4v.557a2.165,2.165,0,0,1,1,.3l-.2.5a2.065,2.065,0,0,0-.8-.264v.992c.546.135,1.138.305,1.138.986C279.566,353.612,279.2,354.046,278.428,354.128Zm-.4-2.106v-.874c-.346.059-.493.235-.493.452s.211.334.493.417Zm.915,1.138c0-.241-.217-.352-.51-.44v.874c.358-.053.51-.229.51-.44Z" transform="translate(-269.116 -200.641)"/><path class="b" d="M284.48,352.76c0-1.132.622-1.76,1.438-1.76s1.438.634,1.438,1.76-.616,1.76-1.438,1.76S284.48,353.887,284.48,352.76Zm2.236,0c0-.827-.329-1.215-.8-1.215s-.792.387-.792,1.215.323,1.215.792,1.215S286.716,353.588,286.716,352.76Z" transform="translate(-272.282 -201.033)"/><path class="b" d="M290.8,355.975a1.126,1.126,0,0,1-.111.423l-.252.692h-.393l.194-.751a.382.382,0,0,1-.229-.364.4.4,0,1,1,.792,0Z" transform="translate(-274.565 -202.904)"/><path class="b" d="M294.462,353.442c0,.587-.434,1.109-1.361,1.109a2.142,2.142,0,0,1-1.291-.4l.27-.5a1.631,1.631,0,0,0,1.009.34c.458,0,.728-.2.728-.528s-.211-.534-.921-.534h-.833l.182-1.872h2.024v.552H292.79l-.076.8h.329C294.057,352.392,294.462,352.832,294.462,353.442Z" transform="translate(-275.311 -201.058)"/><path class="b" d="M297,352.76c0-1.132.622-1.76,1.438-1.76s1.438.634,1.438,1.76-.616,1.76-1.438,1.76S297,353.887,297,352.76Zm2.235,0c0-.827-.329-1.215-.8-1.215s-.792.387-.792,1.215.323,1.215.792,1.215.775-.387.775-1.215Z" transform="translate(-277.456 -201.033)"/><path class="b" d="M303.924,364.293c0,.082-6.313.153-14.082.153s-14.082-.07-14.082-.153,6.308-.152,14.082-.152S303.924,364.2,303.924,364.293Z" transform="translate(-268.678 -206.463)"/><path class="b" d="M288.884,368.2c0,.082-2.934.153-6.542.153s-6.542-.07-6.542-.153,2.934-.153,6.542-.153S288.884,368.115,288.884,368.2Z" transform="translate(-268.695 -208.079)"/><path class="b" d="M360.618,322.392v.552h-.4V322.4a2.147,2.147,0,0,1-1.209-.411l.223-.493a1.872,1.872,0,0,0,.986.37v-.98c-.546-.135-1.132-.311-1.132-.992,0-.5.364-.939,1.132-1.015v-.557h.4v.546a2.166,2.166,0,0,1,1,.3l-.2.5a2.031,2.031,0,0,0-.8-.264v.992c.546.135,1.138.305,1.138.986C361.756,321.882,361.392,322.316,360.618,322.392Zm-.4-2.106v-.874c-.352.059-.5.235-.5.452S359.931,320.2,360.219,320.286Zm.909,1.138c0-.241-.217-.352-.51-.44v.874C360.976,321.8,361.128,321.653,361.128,321.424Z" transform="translate(-303.082 -187.528)"/><path class="b" d="M367.737,319.33v3.438h-.64v-2.9h-.728v-.534Z" transform="translate(-306.123 -187.945)"/><path class="b" d="M370.648,324.279a1.127,1.127,0,0,1-.111.422l-.252.692h-.4l.194-.751a.381.381,0,0,1-.229-.364.4.4,0,0,1,.8,0Z" transform="translate(-307.561 -189.826)"/><path class="b" d="M371.81,321.02c0-1.132.622-1.76,1.438-1.76s1.438.634,1.438,1.76-.587,1.76-1.438,1.76S371.81,322.153,371.81,321.02Zm2.235,0c0-.827-.329-1.215-.8-1.215s-.792.387-.792,1.215.323,1.215.792,1.215S374.046,321.853,374.046,321.02Z" transform="translate(-308.371 -187.917)"/><path class="b" d="M377.45,321.02c0-1.132.622-1.76,1.438-1.76s1.438.634,1.438,1.76-.616,1.76-1.438,1.76S377.45,322.153,377.45,321.02Zm2.235,0c0-.827-.329-1.215-.8-1.215s-.792.387-.792,1.215.323,1.215.792,1.215S379.686,321.853,379.686,321.02Z" transform="translate(-310.702 -187.917)"/><path class="b" d="M386.164,332.558c0,.082-6.313.153-14.082.153S358,332.641,358,332.558s6.308-.158,14.082-.158S386.164,332.47,386.164,332.558Z" transform="translate(-302.664 -193.347)"/><path class="b" d="M371.074,336.468c0,.082-2.934.153-6.542.153s-6.542-.07-6.542-.153,2.934-.158,6.542-.158S371.074,336.38,371.074,336.468Z" transform="translate(-302.66 -194.962)"/><path class="f" d="M348.366,108.423c0,.082-6.8.153-15.185.153s-15.191-.07-15.191-.153,6.8-.153,15.191-.153S348.366,108.335,348.366,108.423Z" transform="translate(-286.13 -100.724)"/><text class="i" transform="translate(23.866 188.806)"><tspan x="0" y="0">START ORDER</tspan></text></g></g><g transform="translate(30.677 113.655)"><rect class="h" width="7.763" height="51.821" transform="translate(32.584 122.095)"/><rect class="h" width="58.886" height="7.176" transform="translate(27.074 115.87)"/><rect class="h" width="40.486" height="7.176" transform="translate(36.926 144.198)"/><rect class="h" width="7.763" height="51.821" transform="translate(73.527 122.095)"/><path class="b" d="M145.69,373.273c0,.082-13.2.153-29.472.153s-29.478-.07-29.478-.153,13.2-.153,29.478-.153S145.69,373.185,145.69,373.273Z" transform="translate(-59.766 -250.333)"/><path class="b" d="M109.483,420.02c-.082,0-.153-3.849-.153-8.59s.07-8.59.153-8.59.153,3.843.153,8.59S109.565,420.02,109.483,420.02Z" transform="translate(-69.101 -262.614)"/><path class="b" d="M165.953,420.31c-.082,0-.153-3.573-.153-7.98s.07-7.98.153-7.98.153,3.573.153,7.98S166.035,420.31,165.953,420.31Z" transform="translate(-92.437 -263.238)"/><path class="b" d="M146.151,363.344l-.587-.164a10.682,10.682,0,0,0-1.79-.252,16.428,16.428,0,0,0-6.454,1.232c-1.32.487-2.723,1.127-4.248,1.76a25.928,25.928,0,0,1-5.017,1.643,14.832,14.832,0,0,1-5.815-.065,31.426,31.426,0,0,1-5.973-1.9c-1.983-.816-3.89-1.69-5.785-2.388a24.95,24.95,0,0,0-5.627-1.455,24.344,24.344,0,0,0-15.842,3.427l-.88.587-.587.446c-.334.246-.516.37-.516.37l.5-.387.587-.458.868-.587a23.22,23.22,0,0,1,6.067-2.723,24,24,0,0,1,9.8-.78,25.037,25.037,0,0,1,5.65,1.449c1.9.7,3.808,1.573,5.791,2.388a31.487,31.487,0,0,0,5.926,1.9,14.716,14.716,0,0,0,5.768.07,26.078,26.078,0,0,0,5-1.625c1.526-.634,2.934-1.273,4.254-1.76a16.23,16.23,0,0,1,6.519-1.173,10.23,10.23,0,0,1,1.76.276Z" transform="translate(-59.885 -245.515)"/><path class="b" d="M107.859,365.915a6.6,6.6,0,0,1-1.655.7,8.332,8.332,0,0,1-4.753,0h-.082l.065-.059a10.233,10.233,0,0,1,3.655-2.282,10.861,10.861,0,0,1,4.946-.587,9.707,9.707,0,0,1,1.6.34,4.749,4.749,0,0,1,1.455.634,1.426,1.426,0,0,1,.628,1.373,1.549,1.549,0,0,1-1.039,1.021,23.142,23.142,0,0,1-4.935,1.127,23.735,23.735,0,0,1-3.409.147,7.645,7.645,0,0,1-1.25-.082h.323l.927.029a25.711,25.711,0,0,0,3.4-.188,23.469,23.469,0,0,0,4.9-1.173,1.426,1.426,0,0,0,.974-.933,1.32,1.32,0,0,0-.587-1.256,4.625,4.625,0,0,0-1.42-.622,11.594,11.594,0,0,0-1.578-.334,10.872,10.872,0,0,0-4.893.552,10.391,10.391,0,0,0-3.632,2.247v-.082a8.42,8.42,0,0,0,4.694.059,9.683,9.683,0,0,0,1.244-.452Z" transform="translate(-65.812 -246.407)"/><path class="b" d="M175.569,368.825a1.332,1.332,0,0,0,.264.628,1.977,1.977,0,0,0,1.666.669,2.1,2.1,0,0,0,1.173-.44,1.344,1.344,0,0,0,.493-1.285,1.443,1.443,0,0,0-1.138-1,6.305,6.305,0,0,0-1.76-.041,16.391,16.391,0,0,0-3.391.51,9.089,9.089,0,0,0-2.558,1.127,7.352,7.352,0,0,0-1.437,1.22c-.147.17-.258.305-.329.4l-.111.141a3.723,3.723,0,0,1,.4-.587,6.548,6.548,0,0,1,1.426-1.261,8.935,8.935,0,0,1,2.57-1.174,15.947,15.947,0,0,1,3.421-.528,6.326,6.326,0,0,1,1.8.047,1.561,1.561,0,0,1,1.226,1.1,1.449,1.449,0,0,1-.54,1.385,2.188,2.188,0,0,1-1.244.452,2.012,2.012,0,0,1-1.713-.728,1.173,1.173,0,0,1-.211-.475A.842.842,0,0,1,175.569,368.825Z" transform="translate(-93.528 -247.868)"/><path class="b" d="M165.273,360.9h-1.2c-.387,0-.862.047-1.408.094a13.722,13.722,0,0,0-1.842.3,39.808,39.808,0,0,0-4.694,1.32c-1.76.587-3.644,1.273-5.7,1.8a18.713,18.713,0,0,1-5.92.645,14.992,14.992,0,0,1-4.723-1.174,14.353,14.353,0,0,1-2.84-1.655,9.242,9.242,0,0,1-.945-.81l.246.188c.158.135.393.317.71.546a14.666,14.666,0,0,0,2.846,1.608,15.067,15.067,0,0,0,4.694,1.174,18.694,18.694,0,0,0,5.867-.639c2.048-.522,3.943-1.215,5.691-1.76a38.141,38.141,0,0,1,4.694-1.3c.681-.147,1.3-.211,1.854-.282s1.027-.059,1.414-.076l.892.035Z" transform="translate(-80.123 -245.274)"/><path class="b" d="M167.423,426.764v-.522a11.363,11.363,0,0,1,.059-1.5,20.534,20.534,0,0,1,1.426-5.281,75.267,75.267,0,0,0,2.887-7.628,23.833,23.833,0,0,0,.728-4.741,23.434,23.434,0,0,0-1.76-10.086c-.64-1.537-1.349-2.992-1.807-4.471a9.7,9.7,0,0,1-.446-4.318,11.188,11.188,0,0,1,1.173-3.614,17.419,17.419,0,0,1,3.35-4.365c.927-.909,1.49-1.361,1.49-1.361l-.381.358c-.252.235-.587.587-1.08,1.033a17.891,17.891,0,0,0-3.292,4.365,11.243,11.243,0,0,0-1.173,3.585,9.629,9.629,0,0,0,.452,4.277c.458,1.461,1.173,2.934,1.807,4.459a22.883,22.883,0,0,1,1.449,4.97,23.135,23.135,0,0,1-.428,9.928,69.011,69.011,0,0,1-2.934,7.628,20.628,20.628,0,0,0-1.461,5.281,12.21,12.21,0,0,0-.082,1.49A4.7,4.7,0,0,1,167.423,426.764Z" transform="translate(-93.099 -252.713)"/><path class="b" d="M165.78,405.3s.053.082.141.246l.376.722c.323.628.792,1.537,1.32,2.681a31.43,31.43,0,0,1,1.6,4.142,17.25,17.25,0,0,1,.78,5.369,20.465,20.465,0,0,1-.868,5.357,38.343,38.343,0,0,1-1.52,4.172c-.493,1.173-.927,2.083-1.226,2.723l-.352.733c-.082.17-.129.252-.129.252l.106-.264c.094-.2.2-.446.334-.739.288-.645.7-1.578,1.173-2.74a26.909,26.909,0,0,0,2.347-9.5,17.28,17.28,0,0,0-.769-5.334,31.685,31.685,0,0,0-1.567-4.137c-.516-1.174-.968-2.065-1.279-2.7l-.358-.728Z" transform="translate(-92.429 -263.631)"/><path class="b" d="M174.864,395.2a.334.334,0,0,1-.1-.164.587.587,0,0,1,.106-.522.7.7,0,0,1,.81-.176,1.326,1.326,0,0,1,.739.845,3.8,3.8,0,0,1,.223,1.355,3.022,3.022,0,0,1-.4,1.526,1.173,1.173,0,0,1-.686.534.792.792,0,0,1-.8-.411,7.262,7.262,0,0,1-.733-1.719,8.3,8.3,0,0,1-.229-3.585,8.086,8.086,0,0,1,.98-2.764,7.788,7.788,0,0,1,1.173-1.584,4.343,4.343,0,0,1,.534-.493,1.319,1.319,0,0,1-.129.135c-.088.088-.217.217-.37.387a8.215,8.215,0,0,0-1.854,7.868,7.141,7.141,0,0,0,.716,1.69.675.675,0,0,0,.675.358,1.05,1.05,0,0,0,.622-.475,2.987,2.987,0,0,0,.387-1.467,3.644,3.644,0,0,0-.2-1.326,1.25,1.25,0,0,0-.681-.81.651.651,0,0,0-.751.141.552.552,0,0,0-.117.487.677.677,0,0,0,.088.17Z" transform="translate(-95.699 -256.498)"/><path class="b" d="M178.081,434.66,178,434.8l-.241.393c-.211.334-.5.827-.827,1.455a22.185,22.185,0,0,0-2.517,10.644,16.3,16.3,0,0,0,.082,1.672c0,.164.029.311.041.452s0,.158,0,.158a15.7,15.7,0,0,1-.217-2.283,21.251,21.251,0,0,1,.587-5.51,21.468,21.468,0,0,1,1.966-5.175A16.138,16.138,0,0,1,178.081,434.66Z" transform="translate(-95.958 -275.764)"/><path class="b" d="M142.663,417.255A35.941,35.941,0,0,1,138,418.587a42.98,42.98,0,0,1-18.037.088c-1.942-.393-3.644-.939-5.087-1.344a15.939,15.939,0,0,0-3.474-.628h-1.3a7.035,7.035,0,0,1,1.3-.059,15.369,15.369,0,0,1,3.52.587c1.449.393,3.145.927,5.087,1.314a43.842,43.842,0,0,0,17.99-.059c1.461-.323,2.635-.64,3.432-.88l.921-.282C142.545,417.278,142.663,417.255,142.663,417.255Z" transform="translate(-69.423 -268.316)"/><path class="b" d="M139.938,412.559a8.9,8.9,0,0,1-1.7.587,11.318,11.318,0,0,1-4.893.135,2.68,2.68,0,0,1-.757-.276,1.4,1.4,0,0,1-.587-.587.739.739,0,0,1,.17-.845,1.714,1.714,0,0,1,.839-.364,26.629,26.629,0,0,1,3.884-.364,27.641,27.641,0,0,1,8.8,1.238c.587.182,1.173.387,1.7.587l.135.053-.129.059a29.536,29.536,0,0,1-14.669,2.406,28.026,28.026,0,0,1-4.424-.763c-1.021-.276-1.572-.464-1.572-.464s.147.029.411.106.657.2,1.173.311a29.494,29.494,0,0,0,11.1.552,29.13,29.13,0,0,0,7.927-2.294v.111c-.534-.2-1.1-.4-1.69-.587a27.947,27.947,0,0,0-8.789-1.226,27.106,27.106,0,0,0-3.861.352,1.637,1.637,0,0,0-.792.334.651.651,0,0,0-.158.739,1.9,1.9,0,0,0,1.3.821,11.389,11.389,0,0,0,4.858-.088,12.88,12.88,0,0,0,1.279-.381Z" transform="translate(-76.292 -265.92)"/><path class="b" d="M110.58,413.737a1.533,1.533,0,0,1,.317-.194,7.883,7.883,0,0,1,.909-.422,10.016,10.016,0,0,1,6.519-.305,7.958,7.958,0,0,1,.945.34,1.918,1.918,0,0,1,.329.158,2.51,2.51,0,0,1-.346-.117c-.223-.082-.546-.188-.951-.3a10.62,10.62,0,0,0-6.454.305c-.393.147-.71.282-.921.387a2.885,2.885,0,0,1-.346.147Z" transform="translate(-69.618 -266.57)"/><path class="b" d="M101.059,413.346s-.129-.153-.364-.458a6.724,6.724,0,0,1-.88-1.438,3.145,3.145,0,0,1-.264-1.173,2.241,2.241,0,0,1,.481-1.355,1.643,1.643,0,0,1,1.467-.7,1.479,1.479,0,0,1,.816.417,2.347,2.347,0,0,1,.511.816,6.842,6.842,0,0,1,.364,2.024,14.861,14.861,0,0,1,0,2.224,14.667,14.667,0,0,1-.387,2.347q-.147.587-.352,1.174a4.413,4.413,0,0,1-.54,1.174,1.349,1.349,0,0,1-1.132.651,1.5,1.5,0,0,1-1.132-.722,4.071,4.071,0,0,1-.587-1.256c-.141-.44-.264-.892-.364-1.355a16.758,16.758,0,0,1-.246-5.8,32.469,32.469,0,0,1,1.391-5.65c.587-1.79,1.173-3.521,1.561-5.181a24.2,24.2,0,0,0,.464-9.083,24.761,24.761,0,0,0-1.6-5.95c-.282-.675-.51-1.173-.687-1.531s-.252-.528-.252-.528.1.176.276.516.422.857.71,1.526a24.238,24.238,0,0,1,1.2,15.079c-.4,1.678-.986,3.4-1.561,5.187a33.069,33.069,0,0,0-1.385,5.633,16.822,16.822,0,0,0,.246,5.756c.1.458.223.9.358,1.344a4.108,4.108,0,0,0,.587,1.226,1.42,1.42,0,0,0,1.039.675,1.25,1.25,0,0,0,1.039-.587,4.137,4.137,0,0,0,.528-1.144c.135-.393.258-.792.352-1.174a15.287,15.287,0,0,0,.393-2.347,14.722,14.722,0,0,0,0-2.212,6.924,6.924,0,0,0-.346-1.995A1.7,1.7,0,0,0,101.5,408.3a1.59,1.59,0,0,0-1.4.669,2.183,2.183,0,0,0-.475,1.314,3,3,0,0,0,.252,1.173,7.041,7.041,0,0,0,.851,1.438Z" transform="translate(-64.544 -253.998)"/><path class="b" d="M104.058,438.16a10.033,10.033,0,0,1,0,2.165,13.336,13.336,0,0,1-1.549,4.976,9.893,9.893,0,0,1-3.432,3.9,3.347,3.347,0,0,1-1.52.446,2.08,2.08,0,0,1-.587-.065,4.926,4.926,0,0,0,.587,0,3.555,3.555,0,0,0,1.484-.475,10,10,0,0,0,3.368-3.878,13.742,13.742,0,0,0,1.567-4.929,14.3,14.3,0,0,0,.106-1.572v-.428A.445.445,0,0,1,104.058,438.16Z" transform="translate(-63.993 -277.211)"/><path class="b" d="M96.936,373.44s-.035.094-.106.258a5.734,5.734,0,0,0-.258.757,7.663,7.663,0,0,0-.188,2.9,14.668,14.668,0,0,0,1.173,4.166c.634,1.514,1.484,3.116,2.095,4.923a12.228,12.228,0,0,1,.587,2.717,11.794,11.794,0,0,1-.076,2.588,17.18,17.18,0,0,1-1.174,4.2,28.386,28.386,0,0,1-1.267,2.658c-.329.616-.534.939-.534.939l.123-.246.37-.71c.311-.622.763-1.52,1.226-2.67a17.286,17.286,0,0,0,1.173-4.189,11.541,11.541,0,0,0,.065-2.558,11.734,11.734,0,0,0-.587-2.687c-.587-1.8-1.449-3.4-2.083-4.917a14.781,14.781,0,0,1-1.174-4.2,7.516,7.516,0,0,1,.229-2.934,4.766,4.766,0,0,1,.4-1Z" transform="translate(-63.695 -250.465)"/><path class="b" d="M105.409,389.171v-.182c0-.117.065-.293.094-.516a10.973,10.973,0,0,0,.129-1.936,19.363,19.363,0,0,0-1.361-6.231c-.88-2.347-1.76-4.442-2.224-6.026a15.108,15.108,0,0,1-.587-2.6.651.651,0,0,1,.047.182,2.588,2.588,0,0,0,.111.516c.094.446.258,1.091.5,1.878.469,1.573,1.379,3.655,2.259,6.008a18.934,18.934,0,0,1,1.373,6.272,9.907,9.907,0,0,1-.17,1.942A5.815,5.815,0,0,1,105.409,389.171Z" transform="translate(-65.849 -249.738)"/><path class="j" d="M82.721,403.43,79.33,429.881l11.582,1.866,7.182-26.873Z" transform="translate(-56.703 -262.858)"/><path class="k" d="M69.491,442.55l-.153.757s-14.041,2.934-14.669,5.31l25.9,4.324,1.285-8.537A15.2,15.2,0,0,1,69.491,442.55Z" transform="translate(-46.513 -279.025)"/><g class="l" transform="translate(30.653 167.512)"><path class="g" d="M94.553,449.488a1.027,1.027,0,0,1,.5,1.308,1.062,1.062,0,0,1-1.332.522,1.009,1.009,0,1,1,.915-1.76" transform="translate(-93.009 -449.344)"/></g><g class="l" transform="translate(8.169 168.483)"><path class="g" d="M80.589,456.433l.305-2.054L55.957,451s-1.244.305-1.267,1.121Z" transform="translate(-54.69 -451)"/></g><path class="b" d="M79.49,443.884c0,.129.587.288,1.174.792s.774,1.08.9,1.05.076-.78-.587-1.379S79.484,443.767,79.49,443.884Z" transform="translate(-56.77 -279.549)"/><path class="b" d="M74.5,444.982c-.047.117.458.422.786,1.021s.346,1.173.475,1.173.34-.669-.082-1.408S74.527,444.888,74.5,444.982Z" transform="translate(-54.705 -280.019)"/><path class="b" d="M70.4,448.434c.111.041.4-.552.211-1.285s-.733-1.1-.81-1.009.229.516.376,1.127S70.277,448.4,70.4,448.434Z" transform="translate(-52.761 -280.502)"/><path class="j" d="M112.6,403.127l1.878,23.106,10.608-1.537L125.8,402Z" transform="translate(-70.452 -262.267)"/><path class="k" d="M123.353,432.9s-7.117,5.744-11.084,1.525l-.786,2.247-3.116,15.842a2.06,2.06,0,0,0,1.385,2.394,2.1,2.1,0,0,0,2.153-.587c2.875-3.092,13.39-14.5,13.172-15.93l-.329-3.8a1.93,1.93,0,0,0-1.4-1.69Z" transform="translate(-68.684 -275.037)"/><g class="l" transform="translate(41.444 162.029)"><path class="g" d="M111.4,457.9,126.256,440l.059.833a2.289,2.289,0,0,1-.628,1.889c-1.173,1.807-4.494,5.9-12.451,14.528A2.124,2.124,0,0,1,111.4,457.9Z" transform="translate(-111.4 -440)"/></g><g class="l" transform="translate(53.307 159.384)"><path class="g" d="M132.072,435.837a1.174,1.174,0,0,0-.229,1.614,1.221,1.221,0,0,0,1.637.229,1.174,1.174,0,1,0-1.5-1.76" transform="translate(-131.62 -435.492)"/></g><path class="b" d="M115.255,453.9a6.245,6.245,0,0,0-1.878-1.4,7.532,7.532,0,0,0-2.347-.27c0-.117.223-.217.686-.317a3.3,3.3,0,0,1,1.831.188,3.163,3.163,0,0,1,1.438,1.109C115.249,453.6,115.3,453.884,115.255,453.9Z" transform="translate(-69.804 -282.872)"/><path class="b" d="M113.395,459.139a17.594,17.594,0,0,0-1.842-.716c-1.062-.217-1.942,0-1.983-.111a2.3,2.3,0,0,1,2.083-.311C112.861,458.276,113.5,459.074,113.395,459.139Z" transform="translate(-69.199 -285.375)"/><path class="b" d="M118.289,447.872a22.186,22.186,0,0,0-2.769-1.3,26.351,26.351,0,0,0-3.039-.469,4.546,4.546,0,0,1,3.174.053A4.613,4.613,0,0,1,118.289,447.872Z" transform="translate(-70.403 -280.398)"/><path class="b" d="M118.678,440.743c-.047.123-1.174-.252-2.64-.205s-2.582.475-2.629.352a3.923,3.923,0,0,1,2.617-.78A4.056,4.056,0,0,1,118.678,440.743Z" transform="translate(-70.786 -278.015)"/><path class="b" d="M114.428,438.316a1.813,1.813,0,0,1,.059-.745,5.075,5.075,0,0,1,.833-1.872,2.348,2.348,0,0,1,1.127-.986.839.839,0,0,1,.909.282,1.261,1.261,0,0,1,.217.915,2.934,2.934,0,0,1-2.852,2.347,3.379,3.379,0,0,1-3.116-2.077,1.132,1.132,0,0,1,.059-.951.839.839,0,0,1,.9-.328,2.886,2.886,0,0,1,1.244.81,5.686,5.686,0,0,1,1.174,1.666,1.678,1.678,0,0,1,.229.71,9.012,9.012,0,0,0-1.637-2.153,2.7,2.7,0,0,0-1.1-.681.446.446,0,0,0-.493.176.751.751,0,0,0,0,.628,3.01,3.01,0,0,0,2.717,1.76,2.535,2.535,0,0,0,2.453-1.96.921.921,0,0,0-.123-.646.446.446,0,0,0-.5-.164,2.124,2.124,0,0,0-.974.816A7.55,7.55,0,0,0,114.428,438.316Z" transform="translate(-70.009 -275.77)"/><path class="b" d="M144.164,320.715s5.715,20.319-9.863,23.845l-24.843.246L94.466,384.823,79.51,383.778l5.468-44.992a13.255,13.255,0,0,1,10.338-11.436l32.177-7.041Z" transform="translate(-56.778 -228.509)"/><path class="b" d="M100.246,168.249c-11.324-1.942-12.375,8.3-12.322,11.236s1.1,5.533,2.136,8.3.376,6.507-.493,9.312c-1.021,3.292-4.266,6.308-3.11,9.546.915,2.541,4.277,3.79,4.694,6.454.329,2.118-1.379,3.955-2.007,6-1.174,3.855,1.531,7.722,4.107,10.843,1.056,1.291,2.347,2.693,4,2.717,2.306.029,3.673-2.464,4.694-4.518a39.124,39.124,0,0,1,12.369-14.3" transform="translate(-59.547 -165.568)"/><path class="b" d="M56.007,270.316l-6.665-6.748a.493.493,0,0,0-.469-.129l-7.739,1.995a.487.487,0,0,0-.229.81l12.8,13.36S63.282,277,63,276.87,56.007,270.316,56.007,270.316Z" transform="translate(-40.767 -205)"/><path class="j" d="M51.1,280.6l.147-.37a.992.992,0,0,1,.98-.628,49.766,49.766,0,0,1,5.1.411,1.015,1.015,0,0,1-.786,1.355,10.9,10.9,0,0,1-3.127,0l1.655,1.883.534-.71a.763.763,0,0,1,.628-.223l2.934.352s.258,1.144-.587,1.326a7.967,7.967,0,0,1-1.954.088l-.34,2.206,3.069,2.347-1.127,1.76-4.107-2.071-.657-2.095a1.039,1.039,0,0,1,.053-.728l.217-.469-.78-.54a1.009,1.009,0,0,1-.417-.992l.1-.587-1.3-1.173A1,1,0,0,1,51.1,280.6Z" transform="translate(-45.002 -211.684)"/><path class="j" d="M66.833,289.868h0L64.8,288.143l-6-.862-.34,2.153-2.13,2.042,8.1,4.1Z" transform="translate(-47.199 -214.859)"/><path class="j" d="M62.375,274.908a1.684,1.684,0,0,0,1.173-.387l.329-.276a2.253,2.253,0,0,1,2.282-.833l4.612,1.79,4.976,4.031-2.464,6.237-8.561-2.23a3.473,3.473,0,0,1-2.153-1.655l-.821-1.461s-2.934-1.132-2.67-2.758l-6.378-1.32a.939.939,0,0,1,.587-1.291C54.073,274.4,60.31,274.761,62.375,274.908Z" transform="translate(-45.663 -209.106)"/><path class="m" d="M63.8,280.2a52.056,52.056,0,0,1-5.551-1,51.479,51.479,0,0,1-5.492-1.291,51.344,51.344,0,0,1,5.551.992,52.283,52.283,0,0,1,5.492,1.3Z" transform="translate(-45.723 -210.987)"/><path class="m" d="M70.482,286.012c-.053.07-.552-.205-1.174-.516s-1.173-.552-1.121-.634.587.029,1.261.358S70.529,285.947,70.482,286.012Z" transform="translate(-52.097 -213.849)"/><path class="m" d="M61,289.936a10.154,10.154,0,0,1-1.5-1.479l-.041-.047v-.07c.1-.546.182-1.173.346-1.854a.651.651,0,0,1,.329-.393,1.231,1.231,0,0,1,.428-.094l.745-.053a3.924,3.924,0,0,1,.692,0,.669.669,0,0,0,.469-.106.868.868,0,0,0,.223-.7,2.264,2.264,0,0,0-.047-.293c.018-.012.117.07.164.276a.933.933,0,0,1-.2.88.874.874,0,0,1-.628.194,4.316,4.316,0,0,0-.651.041l-.733.065c-.276,0-.434.07-.5.293-.141.587-.252,1.279-.37,1.807l-.035-.117A10.766,10.766,0,0,1,61,289.936Z" transform="translate(-48.492 -213.854)"/><path class="n" d="M54.35,281.29c.516.769,3.814.88,4.107.816a1.032,1.032,0,0,1,.775.141.44.44,0,0,1-.076.769l-3,1.261Z" transform="translate(-46.38 -212.384)"/><path class="m" d="M58.907,284.327a2.547,2.547,0,0,1-.434.041h-.481l-.282.035-.129.041h-.047v.029c-.182.293-.393.622-.634.962a8.8,8.8,0,0,1-1.76,2.048,18.613,18.613,0,0,1,1.514-2.224l.657-.939v.07a.211.211,0,0,1,.111-.17l.106-.053.182-.041a2.982,2.982,0,0,1,.317,0,3.7,3.7,0,0,1,.5.047C58.754,284.244,58.907,284.3,58.907,284.327Z" transform="translate(-46.707 -213.554)"/><path class="m" d="M58.748,282.514a11.641,11.641,0,0,1-2.646.123,2.347,2.347,0,0,0-.962.1,1.256,1.256,0,0,0-.587.469c-.258.381-.381.663-.422.645a1.42,1.42,0,0,1,.241-.763,1.379,1.379,0,0,1,.657-.616,2.348,2.348,0,0,1,1.068-.141A11.825,11.825,0,0,1,58.748,282.514Z" transform="translate(-46.289 -212.809)"/><g class="e" transform="translate(53.841 71.699)"><path d="M132.53,297.908a5.186,5.186,0,0,0,3.931-1.314,14,14,0,0,0,2.306-3.057c1.138-2.388,3.186-5.521,4.219-7.487.059.587-1.655,6.243-1.813,8.989a6.282,6.282,0,0,0,.945,4.318c.645.821,1.608,1.326,2.312,2.089a4.536,4.536,0,0,1,.317,5.551,2.422,2.422,0,0,1-2.652,1.1,2.289,2.289,0,0,1-1.174-1.174,12.274,12.274,0,0,1-.587-1.572,10.6,10.6,0,0,0-4.365-5.5,32.681,32.681,0,0,0-3.262-2.054" transform="translate(-132.53 -286.05)"/></g><path class="k" d="M69.42,297.7l12.762,4.266a12.908,12.908,0,0,0,13.055-2.857l4.506-4.271-13.331-3.6-7.152.8-6.6-2.118Z" transform="translate(-52.608 -215.95)"/><path class="c" d="M91.65,299.34s.211.317.587.816a13.838,13.838,0,0,0,1.531,1.819,13.55,13.55,0,0,0,1.837,1.52c.5.346.833.534.821.552l-.241-.111c-.153-.082-.37-.205-.628-.37a11.481,11.481,0,0,1-3.391-3.362,7.25,7.25,0,0,1-.376-.622A1.25,1.25,0,0,1,91.65,299.34Z" transform="translate(-61.795 -219.843)"/><path class="c" d="M96.266,301.31a5.117,5.117,0,0,0,.117,1.467,4.964,4.964,0,0,0,.64,1.326,2.529,2.529,0,0,1-.763-1.3A2.464,2.464,0,0,1,96.266,301.31Z" transform="translate(-63.653 -220.657)"/><path class="c" d="M94.112,299.68c.035,0,.053.587.223,1.267s.428,1.209.393,1.226a3.133,3.133,0,0,1-.51-1.173A3.209,3.209,0,0,1,94.112,299.68Z" transform="translate(-62.801 -219.983)"/><path class="c" d="M93,304.1a4.237,4.237,0,0,1,2.059.628c0,.035-.458-.158-1.021-.329A10.251,10.251,0,0,1,93,304.1Z" transform="translate(-62.353 -221.81)"/><path class="c" d="M91,301.55a3.562,3.562,0,0,1,1.279.493,3.6,3.6,0,0,1,1.068.845c0,.029-.487-.37-1.138-.739S90.964,301.585,91,301.55Z" transform="translate(-61.525 -220.756)"/><path class="c" d="M92.837,303.921a.986.986,0,0,0-.546-.311c-.07,0-.164,0-.194.053a.123.123,0,0,0,.047.153.34.34,0,0,0,.17.053,1.3,1.3,0,0,0-.246.147.081.081,0,0,0-.053.106c.023.035.07.041.111,0l.287-.059c0,.047-.082.065-.123.094s-.082.1-.041.135a.1.1,0,0,0,.117,0,1.408,1.408,0,0,0,.434-.376" transform="translate(-61.943 -221.607)"/><path class="c" d="M93.666,299.445a.053.053,0,0,0,0,.088.088.088,0,0,0,.106,0,.247.247,0,0,0,.065-.088,1.508,1.508,0,0,0,.2-.587c0-.041,0-.1-.035-.123s-.094,0-.135,0a.522.522,0,0,0-.211.411.745.745,0,0,0,0-.393c0-.047-.053-.106-.1-.094s-.065.059-.076.106a.974.974,0,0,0,0,.411.44.44,0,0,0-.241-.323.123.123,0,0,0-.111,0,.082.082,0,0,0-.029.094.211.211,0,0,0,.047.088,2.153,2.153,0,0,0,.552.5" transform="translate(-62.391 -219.561)"/><path class="c" d="M91.027,298.652c-.035.029,0,.094.041.1a.1.1,0,0,0,.111-.059.234.234,0,0,0,0-.129,1.719,1.719,0,0,0-.088-.751.136.136,0,0,0-.106-.123.158.158,0,0,0-.141.1.587.587,0,0,0,0,.557.921.921,0,0,0-.229-.428c-.047-.047-.111-.088-.164-.053s-.041.094,0,.147a1.249,1.249,0,0,0,.235.446.587.587,0,0,0-.44-.235c-.053,0-.106,0-.129.047a.106.106,0,0,0,0,.117.346.346,0,0,0,.106.076,2.769,2.769,0,0,0,.892.276" transform="translate(-61.154 -219.161)"/><path class="c" d="M78.225,293.26s-.106.364-.252.956a14.025,14.025,0,0,0-.376,2.347,14.417,14.417,0,0,0,.053,2.382c.07.587.141.98.123.98s-.035-.088-.076-.258a6.918,6.918,0,0,1-.129-.716,11.148,11.148,0,0,1-.088-2.394,11.6,11.6,0,0,1,.411-2.347,6.32,6.32,0,0,1,.229-.692A1.173,1.173,0,0,1,78.225,293.26Z" transform="translate(-55.927 -217.33)"/><path class="c" d="M79.209,298.1a5.223,5.223,0,0,0-1.033,1.044,5.074,5.074,0,0,0-.587,1.355A2.846,2.846,0,0,1,79.209,298.1Z" transform="translate(-55.984 -219.33)"/><path class="c" d="M79.084,295.36a8.839,8.839,0,0,0-.81,1c-.4.581-.64,1.115-.675,1.1a3.351,3.351,0,0,1,.587-1.174A3.034,3.034,0,0,1,79.084,295.36Z" transform="translate(-55.989 -218.198)"/><path class="c" d="M76.067,297.42a2.98,2.98,0,0,1,.546.927,2.935,2.935,0,0,1,.305,1.039c-.035,0-.176-.452-.417-.992A7.041,7.041,0,0,1,76.067,297.42Z" transform="translate(-55.353 -219.049)"/><path class="c" d="M76.637,294.18a3.773,3.773,0,0,1,.469,1.291,3.52,3.52,0,0,1,.059,1.373c-.035,0-.029-.616-.182-1.349S76.6,294.2,76.637,294.18Z" transform="translate(-55.589 -217.71)"/><path class="c" d="M75.8,297.221a1,1,0,0,0-.117-.622c-.035-.059-.1-.129-.17-.112a.128.128,0,0,0-.088.141.381.381,0,0,0,.076.164.956.956,0,0,0-.276-.094h-.117c-.018,0,0,.076.053.106l.235.176a.3.3,0,0,1-.153-.029c-.053-.029-.123,0-.123.053s.041.07.082.088a1.337,1.337,0,0,0,.587.076" transform="translate(-54.955 -218.663)"/><path class="c" d="M79.839,294.948a.053.053,0,0,0-.07.053c0,.035.035.065.07.076a.252.252,0,0,0,.111,0,1.607,1.607,0,0,0,.587-.229c.035-.029.076-.064.07-.111s-.07-.076-.117-.076a.51.51,0,0,0-.446.111.792.792,0,0,0,.288-.27c0-.047.047-.106,0-.141s-.088,0-.123,0a1.05,1.05,0,0,0-.305.3.452.452,0,0,0,.088-.393c0-.035,0-.076-.065-.088a.1.1,0,0,0-.094.041.347.347,0,0,0-.035.094,2.271,2.271,0,0,0,0,.745" transform="translate(-56.884 -217.71)"/><path class="c" d="M78.488,292.58a.065.065,0,0,0-.047.1.106.106,0,0,0,.117.047.235.235,0,0,0,.117-.065,1.761,1.761,0,0,0,.51-.587.138.138,0,0,0-.17-.205.616.616,0,0,0-.428.352.886.886,0,0,0,.17-.452c0-.065,0-.141-.065-.158s-.1.029-.129.076a1.121,1.121,0,0,0-.182.469.587.587,0,0,0-.117-.487.135.135,0,0,0-.117-.07.117.117,0,0,0-.082.088.329.329,0,0,0,0,.129,2.77,2.77,0,0,0,.37.857" transform="translate(-56.178 -216.644)"/><path class="k" d="M142.157,260.882a12.909,12.909,0,0,1-3.1-9.159c0-.211.035-.422.053-.634.821-7.628,2.3-19.985-.622-26.14-1.919-4.043-13.865-5.95-13.865-5.95L110.8,221.846l-6.349,5.568a5.75,5.75,0,0,0-1.883,3.415l-5.809,36.2,11.735-.839.909-10.509,1.308,13.882s11.148,8.684,14.786,10.292,9.975-2.875,14.833-.886,11.219,0,11.219,0C151.838,273.21,145.6,264.978,142.157,260.882Z" transform="translate(-63.906 -186.642)"/><path class="k" d="M127.592,226.23l-17.767,32.207-19.192.334-3.262,8.214,24.814,5.7c2.834.487,5,.129,6.824-2.1l16.329-30.452S136.639,226.588,127.592,226.23Z" transform="translate(-60.026 -189.63)"/><g class="e" transform="translate(19.176 74.34)"><path d="M73.45,292.293l5.116,1.349a1.76,1.76,0,0,1,1.291,2.018h0a1.76,1.76,0,0,0,1.5,2.06c4.365.587,15.091,2.06,15.3,1.878s2.095-2.124,2.095-2.124l-17.127-3.931.276-.986-7.716-2.007Z" transform="translate(-73.45 -290.55)"/></g><path class="b" d="M115.741,267.783a2.441,2.441,0,0,1-.241-.51l-.587-1.467v.035a8.315,8.315,0,0,1-2.189-2.728,9.8,9.8,0,0,1-.939-4.5c0-1.42.135-2.758.176-3.966a14.184,14.184,0,0,0-.194-3.2,8.655,8.655,0,0,0-1.039-2.752.98.98,0,0,1,.141.153,5.287,5.287,0,0,1,.34.5,7.14,7.14,0,0,1,.769,2.06,13.342,13.342,0,0,1,.264,3.251c0,1.226-.158,2.564-.153,3.961a9.693,9.693,0,0,0,.88,4.377,8.514,8.514,0,0,0,2.065,2.711h0l.51,1.5A2.265,2.265,0,0,1,115.741,267.783Z" transform="translate(-69.68 -198.912)"/><path class="b" d="M160.419,291.35a2.294,2.294,0,0,1,.088.634,10.354,10.354,0,0,1-.041,1.76,12.11,12.11,0,0,1-6.173,9.388,10.559,10.559,0,0,1-1.6.728,2.384,2.384,0,0,1-.622.17c0-.053.857-.329,2.112-1.085a12.65,12.65,0,0,0,6.061-9.224C160.449,292.265,160.361,291.35,160.419,291.35Z" transform="translate(-86.763 -216.541)"/><path class="c" d="M151.84,245.13a1.63,1.63,0,0,1-.176.3c-.117.188-.288.458-.481.8a17.017,17.017,0,0,0-1.3,2.81,17.6,17.6,0,0,0-.769,3c-.059.387-.106.71-.129.927a1.445,1.445,0,0,1-.053.346,2.354,2.354,0,0,1,0-.352,8.432,8.432,0,0,1,.094-.939,15.173,15.173,0,0,1,.733-3.022,15.553,15.553,0,0,1,1.338-2.816c.205-.334.387-.587.522-.786A2,2,0,0,1,151.84,245.13Z" transform="translate(-85.465 -197.44)"/><path class="c" d="M152.172,251.74a5.71,5.71,0,0,0-1.678.927,5.774,5.774,0,0,0-1.173,1.5,1.455,1.455,0,0,1,.223-.528,4.008,4.008,0,0,1,.886-1.068,3.955,3.955,0,0,1,1.173-.7A1.619,1.619,0,0,1,152.172,251.74Z" transform="translate(-85.627 -200.172)"/><path class="c" d="M153.038,248.22c0,.035-.663.37-1.379.951a13.905,13.905,0,0,0-1.209,1.174,1.691,1.691,0,0,1,.282-.4,6.071,6.071,0,0,1,.851-.845,6.759,6.759,0,0,1,1-.663A1.759,1.759,0,0,1,153.038,248.22Z" transform="translate(-86.094 -198.717)"/><path class="c" d="M149.057,249.38a5.967,5.967,0,0,1,.4,2.764c-.041,0-.047-.628-.158-1.385S149.021,249.392,149.057,249.38Z" transform="translate(-85.516 -199.197)"/><path class="c" d="M150.7,245.54a1.931,1.931,0,0,1,.094.51,7.229,7.229,0,0,1,0,1.262,6.917,6.917,0,0,1-.205,1.244,2.07,2.07,0,0,1-.176.493c-.035,0,.188-.775.258-1.76S150.664,245.54,150.7,245.54Z" transform="translate(-86.079 -197.61)"/><path class="c" d="M148.648,249.145a1.3,1.3,0,0,0,.065-.816.2.2,0,0,0-.17-.2.17.17,0,0,0-.158.141.534.534,0,0,0,.035.235,1.525,1.525,0,0,0-.305-.217c-.053,0-.123-.047-.158,0s0,.106,0,.147a1.823,1.823,0,0,0,.229.305c-.07,0-.123-.059-.182-.094s-.153-.041-.176.029.035.1.076.135a1.943,1.943,0,0,0,.686.3" transform="translate(-85.008 -198.68)"/><path class="c" d="M154.434,247.618a.07.07,0,0,0-.106.047.106.106,0,0,0,.065.117.27.27,0,0,0,.135,0,2.088,2.088,0,0,0,.81-.088.149.149,0,0,0,.129-.111c.012-.059-.053-.117-.106-.152a.686.686,0,0,0-.587,0,1.015,1.015,0,0,0,.458-.241c.047-.047.094-.117.059-.17s-.106-.041-.164,0a1.35,1.35,0,0,0-.475.241.587.587,0,0,0,.246-.458c0-.053,0-.111-.053-.135a.117.117,0,0,0-.123,0,.293.293,0,0,0-.076.111,2.81,2.81,0,0,0-.288.921" transform="translate(-87.696 -198.069)"/><path class="c" d="M153.775,244.236a.094.094,0,0,0-.1.106.158.158,0,0,0,.135.106.4.4,0,0,0,.164-.041,2.476,2.476,0,0,0,.839-.516.235.235,0,0,0,.082-.194c0-.082-.117-.111-.194-.117a.8.8,0,0,0-.663.287,1.173,1.173,0,0,0,.376-.5c.029-.076.041-.182,0-.223s-.141,0-.194.053a1.637,1.637,0,0,0-.393.522.769.769,0,0,0,.029-.651.143.143,0,0,0-.123-.123.123.123,0,0,0-.129.076.416.416,0,0,0-.035.164,3.943,3.943,0,0,0,.164,1.2" transform="translate(-87.383 -196.535)"/><path class="c" d="M124,262.2a1.362,1.362,0,0,1-.17.3c-.123.188-.293.464-.487.8a17.222,17.222,0,0,0-1.3,2.811,17.017,17.017,0,0,0-.763,3c-.065.387-.106.71-.129.927a3.025,3.025,0,0,1-.053.346,1.759,1.759,0,0,1,0-.346,8.178,8.178,0,0,1,.094-.939,15.543,15.543,0,0,1,.733-3.028,15.29,15.29,0,0,1,1.338-2.816c.211-.34.387-.587.522-.786a1.889,1.889,0,0,1,.211-.27Z" transform="translate(-73.963 -204.495)"/><path class="c" d="M124.323,268.81a4.888,4.888,0,0,0-2.863,2.429,1.6,1.6,0,0,1,.223-.528,4.008,4.008,0,0,1,.886-1.068,3.954,3.954,0,0,1,1.174-.7A1.62,1.62,0,0,1,124.323,268.81Z" transform="translate(-74.114 -207.226)"/><path class="c" d="M125.178,265.3a10.067,10.067,0,0,0-2.588,2.124,1.69,1.69,0,0,1,.282-.4,6.072,6.072,0,0,1,.851-.845,6.23,6.23,0,0,1,1-.657A1.35,1.35,0,0,1,125.178,265.3Z" transform="translate(-74.581 -205.776)"/><path class="c" d="M121.217,266.45a5.967,5.967,0,0,1,.4,2.764c-.035,0-.047-.622-.158-1.385S121.181,266.462,121.217,266.45Z" transform="translate(-74.011 -206.251)"/><path class="c" d="M122.865,262.61a2.008,2.008,0,0,1,.094.51,6.233,6.233,0,0,1,0,1.262,6.918,6.918,0,0,1-.205,1.244,1.7,1.7,0,0,1-.176.493c-.035,0,.188-.775.258-1.76S122.824,262.61,122.865,262.61Z" transform="translate(-74.574 -204.664)"/><path class="c" d="M120.808,266.215a1.256,1.256,0,0,0,.065-.816.207.207,0,0,0-.17-.2.164.164,0,0,0-.153.147.446.446,0,0,0,0,.229,1.378,1.378,0,0,0-.305-.217c-.053,0-.123-.047-.158,0s0,.106.029.147l.229.311a.4.4,0,0,1-.182-.1c-.059-.035-.153-.035-.176.029s.035.1.076.135a1.842,1.842,0,0,0,.686.3" transform="translate(-73.503 -205.734)"/><path class="c" d="M126.6,264.718a.065.065,0,0,0-.106.041.117.117,0,0,0,.065.117.27.27,0,0,0,.135.029,1.982,1.982,0,0,0,.81-.088.143.143,0,0,0,.129-.111c.012-.059-.047-.117-.106-.147a.669.669,0,0,0-.587,0,.939.939,0,0,0,.452-.241c.053-.041.094-.112.059-.17s-.106-.041-.164,0a1.351,1.351,0,0,0-.475.241.551.551,0,0,0,.246-.458.141.141,0,0,0-.047-.135.117.117,0,0,0-.129,0,.235.235,0,0,0-.076.106,2.851,2.851,0,0,0-.287.921" transform="translate(-76.192 -205.146)"/><path class="c" d="M125.952,261.306a.094.094,0,0,0-.094.111.141.141,0,0,0,.129.1.322.322,0,0,0,.164-.041,2.422,2.422,0,0,0,.839-.516.217.217,0,0,0,.082-.194.205.205,0,0,0-.194-.117.792.792,0,0,0-.663.293,1.174,1.174,0,0,0,.376-.51c0-.076.041-.176,0-.223a.176.176,0,0,0-.194.053,1.638,1.638,0,0,0-.393.522.728.728,0,0,0,.029-.651.143.143,0,0,0-.123-.123.123.123,0,0,0-.129.082.305.305,0,0,0,0,.164,3.655,3.655,0,0,0,.164,1.2" transform="translate(-75.895 -203.589)"/><path class="c" d="M127.39,290.361l.346-.035a9.333,9.333,0,0,0,.933-.088,17.756,17.756,0,0,0,3.028-.634,17.336,17.336,0,0,0,2.863-1.173c.352-.182.634-.334.827-.446a1.837,1.837,0,0,1,.305-.164,2.391,2.391,0,0,1-.282.2c-.188.129-.464.293-.81.487a14.962,14.962,0,0,1-5.92,1.819c-.4.035-.722.053-.945.053A1.593,1.593,0,0,1,127.39,290.361Z" transform="translate(-76.564 -215.082)"/><path class="c" d="M132.53,288a5.966,5.966,0,0,0,1.76.786,5.71,5.71,0,0,0,1.913.059,1.421,1.421,0,0,1-.557.135,4,4,0,0,1-1.385-.076,3.933,3.933,0,0,1-1.273-.54A1.761,1.761,0,0,1,132.53,288Z" transform="translate(-78.689 -215.156)"/><path class="c" d="M129.3,289.53a9.884,9.884,0,0,0,1.584.54c.9.223,1.649.246,1.649.282a1.423,1.423,0,0,1-.5,0,5.744,5.744,0,0,1-1.173-.182,6.066,6.066,0,0,1-1.15-.364,1.414,1.414,0,0,1-.411-.276Z" transform="translate(-77.354 -215.789)"/><path class="c" d="M133.69,292.116a4.454,4.454,0,0,1,.874-1.1,4.2,4.2,0,0,1,1.109-.862c0,.029-.481.4-1.021.951S133.719,292.139,133.69,292.116Z" transform="translate(-79.168 -216.045)"/><path class="c" d="M129.5,292.979a1.793,1.793,0,0,1,.352-.387,7.579,7.579,0,0,1,1-.763,6.616,6.616,0,0,1,1.127-.587,1.666,1.666,0,0,1,.5-.153c0,.035-.739.305-1.561.827S129.523,293.009,129.5,292.979Z" transform="translate(-77.436 -216.433)"/><path class="c" d="M133.454,293.08a1.3,1.3,0,0,0-.692.428c-.059.076-.112.182-.065.258a.17.17,0,0,0,.211.041.505.505,0,0,0,.17-.164,1.337,1.337,0,0,0,0,.376.123.123,0,0,0,.094.129c.059.006.088-.065.1-.117s.076-.241.111-.364c.041.053,0,.135,0,.2s.065.153.129.129.065-.088.065-.141a1.813,1.813,0,0,0-.17-.728" transform="translate(-78.75 -217.256)"/><path class="c" d="M128.843,289.183a.076.076,0,0,0,.1.065.117.117,0,0,0,.059-.123.364.364,0,0,0-.059-.129,2,2,0,0,0-.587-.587.158.158,0,0,0-.164-.035c-.059.029-.065.106-.053.17a.681.681,0,0,0,.34.493.985.985,0,0,0-.464-.229c-.065,0-.147,0-.17.059s0,.112.076.147a1.314,1.314,0,0,0,.481.235.587.587,0,0,0-.516.076.141.141,0,0,0-.076.123.112.112,0,0,0,.088.094.24.24,0,0,0,.129,0,2.78,2.78,0,0,0,.915-.317" transform="translate(-76.738 -215.307)"/><path class="c" d="M126.5,291.666c0,.059.106.059.147,0a.135.135,0,0,0,0-.164.347.347,0,0,0-.129-.112,2.476,2.476,0,0,0-.915-.364.235.235,0,0,0-.205.053.211.211,0,0,0,0,.223.78.78,0,0,0,.628.358,1.262,1.262,0,0,0-.628,0,.167.167,0,0,0-.164.158c.006.082.088.106.158.117a1.62,1.62,0,0,0,.651,0,.751.751,0,0,0-.54.364.176.176,0,0,0,0,.176.153.153,0,0,0,.147.059.5.5,0,0,0,.147-.076,3.737,3.737,0,0,0,.868-.851" transform="translate(-75.672 -216.405)"/><path class="c" d="M158.22,314a1.33,1.33,0,0,1,.334.094c.211.07.516.164.9.27a16.769,16.769,0,0,0,6.137.557c.393-.035.716-.07.933-.106a2.408,2.408,0,0,1,.346-.035,1.331,1.331,0,0,1-.34.082c-.217.047-.534.1-.933.147a15.259,15.259,0,0,1-3.11.035,15.043,15.043,0,0,1-3.057-.587c-.381-.117-.686-.223-.892-.305Z" transform="translate(-89.305 -225.901)"/><path class="c" d="M164.55,312.06a5.867,5.867,0,0,0,1.314,1.391,6.047,6.047,0,0,0,1.76.786,1.866,1.866,0,0,1-.587-.088,4.06,4.06,0,0,1-1.256-.587,4.014,4.014,0,0,1-.974-.98A1.691,1.691,0,0,1,164.55,312.06Z" transform="translate(-91.921 -225.099)"/><path class="c" d="M161,312.28a14.549,14.549,0,0,0,1.261,1.1c.745.552,1.432.851,1.42.886a1.9,1.9,0,0,1-.469-.176,5.949,5.949,0,0,1-1.021-.616,5.755,5.755,0,0,1-.892-.8A1.7,1.7,0,0,1,161,312.28Z" transform="translate(-90.454 -225.19)"/><path class="c" d="M163.54,316.854a4.3,4.3,0,0,1,1.226-.692,4.492,4.492,0,0,1,1.35-.381c0,.035-.587.2-1.3.5S163.558,316.883,163.54,316.854Z" transform="translate(-91.504 -226.637)"/><path class="c" d="M159.35,316.305a1.863,1.863,0,0,1,.475-.223,7.548,7.548,0,0,1,1.22-.329,7.1,7.1,0,0,1,1.256-.106,1.8,1.8,0,0,1,.522.047c0,.035-.8,0-1.76.182S159.368,316.34,159.35,316.305Z" transform="translate(-89.772 -226.581)"/><path class="c" d="M163.321,317.31a1.273,1.273,0,0,0-.8.141c-.088.041-.176.123-.158.217a.17.17,0,0,0,.182.111.534.534,0,0,0,.194-.07,1.507,1.507,0,0,0-.135.352c0,.053,0,.129.041.153s.1,0,.135-.065l.241-.3a.323.323,0,0,1-.047.2.1.1,0,0,0,.07.164c.07.006.088-.059.106-.112a1.725,1.725,0,0,0,.123-.733" transform="translate(-91.014 -227.263)"/><path class="c" d="M160.411,311.887c0,.041,0,.1.07.094a.117.117,0,0,0,.1-.088.41.41,0,0,0,0-.147,2.048,2.048,0,0,0-.287-.757.188.188,0,0,0-.141-.1c-.065,0-.1.076-.117.141a.663.663,0,0,0,.135.587.986.986,0,0,0-.346-.381c-.053-.035-.135-.064-.176,0a.141.141,0,0,0,0,.164,1.279,1.279,0,0,0,.352.4.587.587,0,0,0-.5-.123.159.159,0,0,0-.117.082.123.123,0,0,0,.047.123.443.443,0,0,0,.123.047,2.83,2.83,0,0,0,.968.047" transform="translate(-89.783 -224.616)"/><path class="c" d="M157.344,313.318a.088.088,0,0,0,.129.065.141.141,0,0,0,.065-.153.311.311,0,0,0-.076-.152,2.381,2.381,0,0,0-.71-.681c-.065-.035-.141-.07-.205-.029a.2.2,0,0,0-.065.211.78.78,0,0,0,.446.587,1.173,1.173,0,0,0-.587-.241c-.082,0-.182,0-.211.082s.041.129.1.17a1.618,1.618,0,0,0,.587.252.757.757,0,0,0-.64.129c-.047.041-.1.094-.088.152a.117.117,0,0,0,.111.106.316.316,0,0,0,.164,0,3.673,3.673,0,0,0,1.127-.458" transform="translate(-88.424 -225.219)"/><path class="c" d="M144.806,268.19s.029.381.082.992a14.126,14.126,0,0,0,.434,2.347,13.493,13.493,0,0,0,.845,2.23c.264.552.458.874.44.886a1.137,1.137,0,0,1-.153-.217c-.094-.147-.223-.358-.364-.628a11.448,11.448,0,0,1-1.285-4.6v-.728A1.626,1.626,0,0,1,144.806,268.19Z" transform="translate(-83.759 -206.97)"/><path class="c" d="M147.331,272.23a5.139,5.139,0,0,0-.628,1.332,5.2,5.2,0,0,0-.1,1.467,2.852,2.852,0,0,1,.728-2.8Z" transform="translate(-84.459 -208.64)"/><path class="c" d="M146.3,269.71c.035,0-.241.534-.428,1.215s-.229,1.261-.264,1.261A4.107,4.107,0,0,1,146.3,269.71Z" transform="translate(-84.091 -207.598)"/><path class="c" d="M143.65,273a2.84,2.84,0,0,1,.845.681,3.109,3.109,0,0,1,.634.88s-.317-.364-.722-.792S143.632,273.035,143.65,273Z" transform="translate(-83.283 -208.958)"/><path class="c" d="M143.109,269.77a3.585,3.585,0,0,1,.874,1.062,3.521,3.521,0,0,1,.516,1.273c-.035,0-.241-.587-.622-1.209S143.086,269.8,143.109,269.77Z" transform="translate(-83.06 -207.623)"/><path class="c" d="M143.426,272.811a.962.962,0,0,0-.317-.54c-.059-.053-.135-.094-.2-.053a.135.135,0,0,0-.035.158.37.37,0,0,0,.123.129.944.944,0,0,0-.288,0c-.041,0-.1,0-.1.065s.047.07.082.082l.282.094a.264.264,0,0,1-.153,0c-.053,0-.117.047-.1.094s.065.053.106.053a1.419,1.419,0,0,0,.587-.111" transform="translate(-82.854 -208.628)"/><path class="c" d="M146.429,269.37a.054.054,0,0,0-.047.076.088.088,0,0,0,.088.047.246.246,0,0,0,.106-.047,1.59,1.59,0,0,0,.469-.417.135.135,0,0,0,.029-.123c0-.047-.082-.053-.135-.047a.516.516,0,0,0-.381.252.751.751,0,0,0,.182-.352c0-.047,0-.111-.041-.129a.092.092,0,0,0-.117.053,1.132,1.132,0,0,0-.188.364.44.44,0,0,0-.053-.4.117.117,0,0,0-.088-.059.088.088,0,0,0-.076.065.318.318,0,0,0,0,.106,2.254,2.254,0,0,0,.229.7" transform="translate(-84.326 -207.135)"/><path class="c" d="M144.379,267.5a.065.065,0,0,0,0,.112.1.1,0,0,0,.123,0,.27.27,0,0,0,.088-.094,1.842,1.842,0,0,0,.3-.7.229.229,0,0,0-.035-.158c-.035-.035-.117,0-.17,0a.587.587,0,0,0-.293.475.857.857,0,0,0,0-.487.133.133,0,0,0-.111-.129c-.059,0-.088.065-.1.117a1.22,1.22,0,0,0,0,.5.587.587,0,0,0-.276-.422c-.041,0-.088-.047-.129,0a.094.094,0,0,0-.047.106.269.269,0,0,0,.053.117,2.735,2.735,0,0,0,.64.687" transform="translate(-83.315 -206.28)"/><path class="c" d="M132.057,269.28s-.246.293-.628.774a13.174,13.174,0,0,0-1.3,1.995,13.685,13.685,0,0,0-.939,2.189c-.188.587-.276.951-.293.945a.992.992,0,0,1,.035-.264c.035-.17.094-.411.176-.7a11.633,11.633,0,0,1,.909-2.224,11.366,11.366,0,0,1,1.355-1.983c.2-.235.37-.417.493-.534A1.172,1.172,0,0,1,132.057,269.28Z" transform="translate(-77.188 -207.42)"/><path class="c" d="M131.984,274.35a5.153,5.153,0,0,0-1.379.522,4.966,4.966,0,0,0-1.085.992,2.81,2.81,0,0,1,2.464-1.514Z" transform="translate(-77.445 -209.516)"/><path class="c" d="M133.076,271.75c0,.035-.546.217-1.173.587s-1.033.757-1.062.728a3.261,3.261,0,0,1,1-.833A3.2,3.2,0,0,1,133.076,271.75Z" transform="translate(-77.99 -208.441)"/><path class="c" d="M130.093,272a4.166,4.166,0,0,1,0,2.147c-.035,0,.029-.481.029-1.074A9.977,9.977,0,0,1,130.093,272Z" transform="translate(-77.677 -208.544)"/><path class="c" d="M131.568,269.24a3.456,3.456,0,0,1-.106,1.373,3.667,3.667,0,0,1-.5,1.273c-.035,0,.217-.587.387-1.3S131.5,269.24,131.568,269.24Z" transform="translate(-78.037 -207.404)"/><path class="c" d="M134.313,271.243h-.094a.106.106,0,0,0,.035.1.324.324,0,0,0,.106.035,1.761,1.761,0,0,0,.628,0c.041,0,.094,0,.106-.07s0-.1-.059-.129a.534.534,0,0,0-.458-.082.722.722,0,0,0,.376-.129.1.1,0,0,0,.065-.123c-.023-.047-.076-.041-.123-.035a1.01,1.01,0,0,0-.387.129.452.452,0,0,0,.241-.323.112.112,0,0,0,0-.106.088.088,0,0,0-.1,0,.217.217,0,0,0-.07.076,2.153,2.153,0,0,0-.329.669" transform="translate(-79.386 -207.922)"/><path class="c" d="M134.227,268.588c-.041,0-.088.029-.082.07a.106.106,0,0,0,.088.094.323.323,0,0,0,.129,0,1.894,1.894,0,0,0,.7-.3c.047-.035.094-.082.082-.141a.153.153,0,0,0-.129-.106.587.587,0,0,0-.54.141.916.916,0,0,0,.346-.34c0-.053.053-.135,0-.176s-.106,0-.153,0a1.386,1.386,0,0,0-.364.352.587.587,0,0,0,.1-.493.159.159,0,0,0-.076-.112.106.106,0,0,0-.112.047.3.3,0,0,0-.041.123,2.933,2.933,0,0,0,0,.933" transform="translate(-79.352 -206.716)"/><path class="c" d="M144.648,224.77s-.246.293-.628.769a13.266,13.266,0,0,0-1.308,1.989,13.463,13.463,0,0,0-.939,2.189c-.188.587-.276.951-.293.945a.99.99,0,0,1,.035-.264c.035-.17.094-.411.176-.71a11.593,11.593,0,0,1,.909-2.218,11.147,11.147,0,0,1,1.355-1.977c.2-.235.364-.417.493-.54S144.637,224.764,144.648,224.77Z" transform="translate(-82.387 -189.026)"/><path class="c" d="M144.584,229.83a3.984,3.984,0,0,0-2.464,1.514,2.84,2.84,0,0,1,2.464-1.514Z" transform="translate(-82.652 -191.118)"/><path class="c" d="M145.676,227.24c0,.035-.546.211-1.174.587s-1.033.751-1.062.722a4.072,4.072,0,0,1,2.218-1.3Z" transform="translate(-83.197 -190.047)"/><path class="c" d="M142.667,227.44a2.84,2.84,0,0,1,.135,1.08,3.039,3.039,0,0,1-.153,1.074,6.677,6.677,0,0,1,.029-1.08C142.708,227.921,142.632,227.446,142.667,227.44Z" transform="translate(-82.864 -190.13)"/><path class="c" d="M144.118,224.73a3.427,3.427,0,0,1-.106,1.367,3.609,3.609,0,0,1-.5,1.273c-.035,0,.217-.587.387-1.3S144.083,224.73,144.118,224.73Z" transform="translate(-83.224 -189.01)"/><path class="c" d="M146.932,226.733h-.094a.088.088,0,0,0,.035.094.329.329,0,0,0,.106.041,1.614,1.614,0,0,0,.628,0c.041,0,.094,0,.106-.07s0-.094-.059-.123a.511.511,0,0,0-.458-.082.78.78,0,0,0,.376-.129c.041,0,.082-.076.065-.123s-.076-.047-.123-.041a1.12,1.12,0,0,0-.387.129.446.446,0,0,0,.241-.317.123.123,0,0,0,0-.111.088.088,0,0,0-.1,0,.2.2,0,0,0-.07.07,2.218,2.218,0,0,0-.329.669" transform="translate(-84.6 -189.528)"/><path class="c" d="M146.827,224.082c-.041,0-.088,0-.082.07a.106.106,0,0,0,.088.094.323.323,0,0,0,.129,0,1.8,1.8,0,0,0,.7-.3.147.147,0,0,0,.082-.135c0-.065-.07-.094-.129-.111a.587.587,0,0,0-.54.147.933.933,0,0,0,.346-.346c0-.053.053-.129,0-.17s-.106,0-.153,0a1.3,1.3,0,0,0-.364.352.587.587,0,0,0,.1-.493.123.123,0,0,0-.076-.111.106.106,0,0,0-.111.047.282.282,0,0,0-.041.123,2.934,2.934,0,0,0,0,.933" transform="translate(-84.559 -188.326)"/><path class="c" d="M107.989,286.46a8.193,8.193,0,0,0,.082.986,13.6,13.6,0,0,0,.428,2.347,13.749,13.749,0,0,0,.845,2.224c.27.552.464.88.446.886s-.065-.07-.158-.217-.217-.358-.364-.628a11.859,11.859,0,0,1-.886-2.236,11.448,11.448,0,0,1-.4-2.347v-.728A.869.869,0,0,1,107.989,286.46Z" transform="translate(-68.541 -214.52)"/><path class="c" d="M110.526,290.49a3.972,3.972,0,0,0-.728,2.8,2.488,2.488,0,0,1,0-1.5A2.458,2.458,0,0,1,110.526,290.49Z" transform="translate(-69.247 -216.185)"/><path class="c" d="M109.5,288c.029,0-.246.528-.434,1.209s-.229,1.262-.264,1.262a3.174,3.174,0,0,1,.147-1.291A3.016,3.016,0,0,1,109.5,288Z" transform="translate(-68.877 -215.156)"/><path class="c" d="M106.849,291.28a2.987,2.987,0,0,1,.839.687,2.863,2.863,0,0,1,.634.874s-.317-.364-.722-.792S106.826,291.309,106.849,291.28Z" transform="translate(-68.075 -216.512)"/><path class="c" d="M106.309,288a3.521,3.521,0,0,1,.868,1.056,3.585,3.585,0,0,1,.516,1.273c-.035,0-.235-.587-.622-1.209S106.28,288.047,106.309,288Z" transform="translate(-67.852 -215.156)"/><path class="c" d="M106.6,291.072a1.009,1.009,0,0,0-.323-.54c-.053-.047-.135-.094-.194-.053a.135.135,0,0,0-.035.164.323.323,0,0,0,.123.129,1.165,1.165,0,0,0-.287,0c-.047,0-.1,0-.1.07s.041.064.082.076l.282.094a.289.289,0,0,1-.158,0c-.053,0-.117.047-.1.1s.065.047.111.047a1.438,1.438,0,0,0,.587-.111" transform="translate(-67.634 -216.174)"/><path class="c" d="M109.622,287.63a.057.057,0,0,0-.047.076.088.088,0,0,0,.094.047.223.223,0,0,0,.1-.047,1.661,1.661,0,0,0,.469-.411c0-.041.053-.088.029-.129a.129.129,0,0,0-.129-.047.528.528,0,0,0-.387.258.751.751,0,0,0,.182-.352c0-.053,0-.117-.041-.135s-.082,0-.111.059a1.033,1.033,0,0,0-.194.364.452.452,0,0,0-.047-.4.117.117,0,0,0-.094-.065.1.1,0,0,0-.07.065.218.218,0,0,0,0,.106,2.189,2.189,0,0,0,.229.71" transform="translate(-69.117 -214.681)"/><path class="c" d="M107.565,285.77c-.041,0-.047.076,0,.111a.129.129,0,0,0,.129,0,.358.358,0,0,0,.088-.1,1.924,1.924,0,0,0,.293-.7.164.164,0,0,0,0-.158.159.159,0,0,0-.176,0,.587.587,0,0,0-.288.475.892.892,0,0,0,0-.481c0-.064-.053-.135-.117-.129s-.082.065-.094.117a1.215,1.215,0,0,0,0,.5.587.587,0,0,0-.27-.428.164.164,0,0,0-.135,0,.111.111,0,0,0-.047.112.3.3,0,0,0,.053.117,2.934,2.934,0,0,0,.64.681" transform="translate(-68.116 -213.83)"/><path class="c" d="M156.512,291.58a8.194,8.194,0,0,0,.082.986,13.69,13.69,0,0,0,.434,2.347,13.223,13.223,0,0,0,.845,2.224c.264.552.458.874.44.886a.982.982,0,0,1-.158-.217c-.094-.141-.217-.358-.364-.628a11.706,11.706,0,0,1-1.285-4.6v-.728A1.049,1.049,0,0,1,156.512,291.58Z" transform="translate(-88.594 -216.636)"/><path class="c" d="M159.041,295.61a4.929,4.929,0,0,0-.628,1.332,5.2,5.2,0,0,0-.1,1.467A2.852,2.852,0,0,1,159.041,295.61Z" transform="translate(-89.298 -218.301)"/><path class="c" d="M158,293.1c.035,0-.241.528-.434,1.209s-.223,1.262-.264,1.262a3.174,3.174,0,0,1,.147-1.291A3.222,3.222,0,0,1,158,293.1Z" transform="translate(-88.919 -217.264)"/><path class="c" d="M155.359,296.4a2.986,2.986,0,0,1,.839.687,3.086,3.086,0,0,1,.64.874s-.317-.364-.728-.792A10.075,10.075,0,0,1,155.359,296.4Z" transform="translate(-88.122 -218.628)"/><path class="c" d="M154.819,293.16a4.606,4.606,0,0,1,1.391,2.347c-.035,0-.241-.587-.628-1.209S154.79,293.184,154.819,293.16Z" transform="translate(-87.899 -217.289)"/><path class="c" d="M155.106,296.192a1.039,1.039,0,0,0-.317-.54c-.059-.047-.141-.094-.2-.053a.129.129,0,0,0-.035.164.429.429,0,0,0,.123.129,1.165,1.165,0,0,0-.288,0c-.047,0-.1,0-.1.07s.047.065.082.076l.282.094a.264.264,0,0,1-.153,0c-.059,0-.117.047-.1.1s.065.047.106.047a1.42,1.42,0,0,0,.587-.111" transform="translate(-87.681 -218.29)"/><path class="c" d="M158.129,292.763a.06.06,0,0,0-.053.076.088.088,0,0,0,.094.047.223.223,0,0,0,.1-.047,1.514,1.514,0,0,0,.469-.411c0-.041.053-.088,0-.129a.155.155,0,0,0-.129-.047.528.528,0,0,0-.387.258.7.7,0,0,0,.182-.352c0-.053,0-.117-.035-.135s-.088,0-.117.059a.939.939,0,0,0-.188.364.434.434,0,0,0-.053-.4.112.112,0,0,0-.07-.047.105.105,0,0,0-.076.065.217.217,0,0,0,0,.106,2.189,2.189,0,0,0,.229.71" transform="translate(-89.156 -216.809)"/><path class="c" d="M156.094,290.89a.065.065,0,0,0,0,.111.129.129,0,0,0,.129,0,.288.288,0,0,0,.088-.1,1.843,1.843,0,0,0,.3-.7.182.182,0,0,0-.035-.158.153.153,0,0,0-.17,0,.587.587,0,0,0-.293.475.893.893,0,0,0,0-.481c0-.065-.053-.135-.111-.129s-.088.064-.1.117a1.215,1.215,0,0,0,0,.5.587.587,0,0,0-.27-.428.164.164,0,0,0-.135,0,.111.111,0,0,0-.047.111.547.547,0,0,0,.059.117,2.8,2.8,0,0,0,.634.681" transform="translate(-88.159 -215.946)"/><path class="c" d="M165.332,251.56s-.352.152-.909.4a13.373,13.373,0,0,0-2.065,1.174,13.532,13.532,0,0,0-1.825,1.531c-.434.428-.675.722-.692.7a1.065,1.065,0,0,1,.153-.217c.106-.135.27-.323.475-.552a11.682,11.682,0,0,1,3.919-2.728c.288-.117.522-.2.687-.252A1.172,1.172,0,0,1,165.332,251.56Z" transform="translate(-89.974 -200.098)"/><path class="c" d="M164.381,255.625a3.908,3.908,0,0,0-2.881.235,2.81,2.81,0,0,1,2.881-.235Z" transform="translate(-90.66 -201.657)"/><path class="c" d="M166.6,253.829c0,.035-.587-.053-1.285,0s-1.267.2-1.279.164a3.133,3.133,0,0,1,1.267-.287A3.192,3.192,0,0,1,166.6,253.829Z" transform="translate(-91.71 -200.976)"/><path class="c" d="M163.562,252.049a2.876,2.876,0,0,1-.37,1.021,2.933,2.933,0,0,1-.622.892s.241-.422.516-.945S163.526,252.02,163.562,252.049Z" transform="translate(-91.103 -200.299)"/><path class="c" d="M165.913,250.48a3.461,3.461,0,0,1-.71,1.173,3.562,3.562,0,0,1-1.033.909c0-.029.458-.411.939-.986S165.883,250.462,165.913,250.48Z" transform="translate(-91.764 -199.651)"/><path class="c" d="M163.947,251.82a1,1,0,0,0,.411-.481c0-.065.041-.158,0-.2a.123.123,0,0,0-.164,0,.37.37,0,0,0-.082.158,1.333,1.333,0,0,0-.094-.27.083.083,0,0,0-.1-.07c-.041.018-.047.065-.047.106v.293c-.041,0-.053-.094-.07-.141s-.082-.094-.123-.065,0,.082,0,.123a1.361,1.361,0,0,0,.293.493" transform="translate(-91.553 -199.847)"/><path class="c" d="M168.082,253.524c0-.035-.065-.047-.088,0a.088.088,0,0,0,0,.106.217.217,0,0,0,.07.076,1.584,1.584,0,0,0,.546.311h.129a.123.123,0,0,0,0-.135.516.516,0,0,0-.37-.282.752.752,0,0,0,.393.053c.047,0,.111,0,.111-.076s-.047-.076-.088-.094a1.091,1.091,0,0,0-.411-.059.458.458,0,0,0,.364-.176c0-.035.041-.07,0-.106a.082.082,0,0,0-.082-.053.287.287,0,0,0-.1.035,2.237,2.237,0,0,0-.587.452" transform="translate(-93.334 -200.73)"/><path class="c" d="M169.121,250.965c0-.041-.088,0-.106,0a.112.112,0,0,0,.035.123.288.288,0,0,0,.123.047,1.76,1.76,0,0,0,.757.053c.053,0,.117,0,.135-.082a.121.121,0,0,0-.065-.158.587.587,0,0,0-.552-.117.875.875,0,0,0,.464-.153.123.123,0,0,0,.088-.147c-.023-.053-.088-.059-.147-.053a1.2,1.2,0,0,0-.481.147.587.587,0,0,0,.311-.393.153.153,0,0,0,0-.135.1.1,0,0,0-.117,0,.229.229,0,0,0-.094.088,2.875,2.875,0,0,0-.44.827" transform="translate(-93.764 -199.485)"/><path class="c" d="M106.506,267.86s-.053.376-.129.98a13.962,13.962,0,0,0-.082,2.382,13.773,13.773,0,0,0,.346,2.347c.147.587.264.956.241.962a1.76,1.76,0,0,1-.1-.246,7.038,7.038,0,0,1-.223-.692,11.552,11.552,0,0,1-.381-2.347,11.8,11.8,0,0,1,.111-2.4c.053-.305.1-.546.141-.716a1.3,1.3,0,0,1,.076-.27Z" transform="translate(-67.791 -206.834)"/><path class="c" d="M107.995,272.47a3.943,3.943,0,0,0-1.308,2.576A2.857,2.857,0,0,1,107.995,272.47Z" transform="translate(-68.006 -208.739)"/><path class="c" d="M107.509,269.77a8.588,8.588,0,0,0-.681,1.091c-.329.628-.493,1.173-.528,1.173A3.978,3.978,0,0,1,107.509,269.77Z" transform="translate(-67.849 -207.623)"/><path class="c" d="M104.579,272.32a2.839,2.839,0,0,1,.681.851,2.934,2.934,0,0,1,.428.992c-.035,0-.229-.422-.534-.933S104.556,272.343,104.579,272.32Z" transform="translate(-67.137 -208.677)"/><path class="c" d="M104.749,269a3.439,3.439,0,0,1,.628,1.22,3.608,3.608,0,0,1,.229,1.349c-.035,0-.111-.587-.346-1.308S104.719,269.041,104.749,269Z" transform="translate(-67.207 -207.305)"/><path class="c" d="M104.322,272.127a1.027,1.027,0,0,0-.194-.587c-.047-.059-.117-.117-.182-.094a.129.129,0,0,0-.07.153.352.352,0,0,0,.094.152,1.22,1.22,0,0,0-.282-.064c-.047,0-.1,0-.111.047s0,.076.065.1l.252.147a.369.369,0,0,1-.158,0c-.053,0-.123,0-.117.07s.053.065.094.07a1.36,1.36,0,0,0,.587,0" transform="translate(-66.722 -208.313)"/><path class="c" d="M108.074,269.384a.062.062,0,0,0-.065.065.088.088,0,0,0,.082.065.341.341,0,0,0,.106,0,1.473,1.473,0,0,0,.546-.305.123.123,0,0,0,.059-.117c0-.047-.07-.064-.117-.07a.528.528,0,0,0-.434.164.71.71,0,0,0,.252-.305c0-.047.035-.111,0-.135s-.088,0-.123.029a.956.956,0,0,0-.264.311.458.458,0,0,0,.035-.4.087.087,0,0,0-.164-.029.5.5,0,0,0,0,.1,2.107,2.107,0,0,0,.076.739" transform="translate(-68.543 -207.143)"/><path class="c" d="M106.42,267.2c-.047,0-.065.065-.035.1a.106.106,0,0,0,.123.035.323.323,0,0,0,.106-.076,1.889,1.889,0,0,0,.44-.616.182.182,0,0,0,0-.164.159.159,0,0,0-.17,0,.587.587,0,0,0-.387.4.892.892,0,0,0,.117-.475c0-.059,0-.141-.088-.153s-.094.047-.117.1a1.174,1.174,0,0,0-.123.487.587.587,0,0,0-.176-.475.152.152,0,0,0-.123-.047c-.041,0-.065.053-.07.094a.318.318,0,0,0,0,.123,2.881,2.881,0,0,0,.475.81" transform="translate(-67.688 -206.171)"/><path class="c" d="M173.86,298.14s.076.37.223.968a13.315,13.315,0,0,0,.757,2.253,13.71,13.71,0,0,0,1.174,2.083c.346.5.587.8.587.816a1.171,1.171,0,0,1-.182-.194,5.729,5.729,0,0,1-.452-.587,11.967,11.967,0,0,1-1.174-2.089,11.673,11.673,0,0,1-.733-2.282c-.059-.3-.1-.546-.117-.716A.786.786,0,0,1,173.86,298.14Z" transform="translate(-95.768 -219.347)"/><path class="c" d="M177.1,301.69a4.945,4.945,0,0,0-.434,1.408,5.039,5.039,0,0,0,.111,1.467,2.441,2.441,0,0,1-.235-1.479A2.523,2.523,0,0,1,177.1,301.69Z" transform="translate(-96.864 -220.814)"/><path class="c" d="M175.711,299.37c.035,0-.164.557-.252,1.262s-.047,1.279-.082,1.279A4.014,4.014,0,0,1,175.711,299.37Z" transform="translate(-96.364 -219.855)"/><path class="c" d="M173.39,303.08a2.858,2.858,0,0,1,.945.54,2.935,2.935,0,0,1,.751.78s-.364-.317-.827-.686S173.372,303.109,173.39,303.08Z" transform="translate(-95.574 -221.388)"/><path class="c" d="M172.4,300a3.456,3.456,0,0,1,1.009.921,3.708,3.708,0,0,1,.7,1.174c-.035,0-.317-.522-.792-1.109S172.376,300,172.4,300Z" transform="translate(-95.164 -220.116)"/><path class="c" d="M173.157,302.877a.968.968,0,0,0-.393-.487c-.059-.041-.147-.07-.2,0a.123.123,0,0,0,0,.164.334.334,0,0,0,.141.111,1.174,1.174,0,0,0-.288.041c-.041,0-.094.041-.088.082s.053.059.094.07l.293.047a.27.27,0,0,1-.153.041c-.053,0-.111.065-.088.111a.123.123,0,0,0,.117.035,1.49,1.49,0,0,0,.54-.194" transform="translate(-95.136 -221.086)"/><path class="c" d="M175.619,299.047a.053.053,0,0,0-.035.082.082.082,0,0,0,.094.035.217.217,0,0,0,.094-.059,1.5,1.5,0,0,0,.4-.475.129.129,0,0,0,0-.129.135.135,0,0,0-.141-.029.528.528,0,0,0-.346.305.763.763,0,0,0,.135-.37c0-.053,0-.117-.059-.129s-.082.035-.106.07a1.139,1.139,0,0,0-.141.387.446.446,0,0,0-.106-.387.112.112,0,0,0-.1-.047.094.094,0,0,0-.059.076.188.188,0,0,0,0,.1,2.154,2.154,0,0,0,.329.669" transform="translate(-96.342 -219.403)"/><path class="c" d="M173.342,297.486c-.041,0-.035.082,0,.111a.117.117,0,0,0,.123,0,.293.293,0,0,0,.076-.111,1.866,1.866,0,0,0,.194-.733c0-.053,0-.123-.059-.153a.152.152,0,0,0-.164.041.587.587,0,0,0-.223.51.9.9,0,0,0-.053-.481.129.129,0,0,0-.135-.111c-.059.012-.076.076-.076.129a1.174,1.174,0,0,0,.053.5.587.587,0,0,0-.329-.381.141.141,0,0,0-.135,0,.1.1,0,0,0-.029.111.322.322,0,0,0,.07.112,2.933,2.933,0,0,0,.728.587" transform="translate(-95.239 -218.693)"/><path class="c" d="M163.62,275.7s.094-.364.229-.962a13.207,13.207,0,0,0,.205-4.735c-.082-.587-.164-.98-.147-.98s.041.088.082.252.1.411.153.71a11.961,11.961,0,0,1,.141,2.4,11.383,11.383,0,0,1-.352,2.347,7.268,7.268,0,0,1-.211.7A1.173,1.173,0,0,1,163.62,275.7Z" transform="translate(-91.537 -207.313)"/><path class="c" d="M161.92,273.885a5.088,5.088,0,0,0,1.009-1.068,5.323,5.323,0,0,0,.552-1.367,2.494,2.494,0,0,1-.446,1.432,2.546,2.546,0,0,1-1.115,1Z" transform="translate(-90.834 -208.317)"/><path class="c" d="M162.209,276.84c-.029,0,.393-.428.786-1.015s.587-1.132.64-1.115a3.1,3.1,0,0,1-.54,1.174,3.163,3.163,0,0,1-.886.956Z" transform="translate(-90.953 -209.664)"/><path class="c" d="M165.575,274.808a2.894,2.894,0,0,1-.587-.909,2.8,2.8,0,0,1-.329-1.039c.029,0,.188.452.44.986S165.6,274.79,165.575,274.808Z" transform="translate(-91.966 -208.9)"/><path class="c" d="M165.3,277.566a4.541,4.541,0,0,1-.587-2.646c.035,0,.047.587.217,1.344S165.33,277.549,165.3,277.566Z" transform="translate(-91.98 -209.751)"/><path class="c" d="M166,275.87a1.079,1.079,0,0,0,.135.616c.041.059.106.123.176.106a.129.129,0,0,0,.082-.141.334.334,0,0,0-.076-.158,1.08,1.08,0,0,0,.276.088c.041,0,.1,0,.111-.035a.087.087,0,0,0-.053-.106l-.241-.17a.258.258,0,0,1,.158.029c.047,0,.123,0,.123-.065s-.047-.064-.088-.076a1.35,1.35,0,0,0-.587-.07" transform="translate(-92.518 -210.144)"/><path class="c" d="M161.9,278.112a.059.059,0,0,0,.07-.059c0-.041-.035-.065-.07-.076a.361.361,0,0,0-.111,0,1.672,1.672,0,0,0-.587.246c-.035.029-.076.07-.065.111a.148.148,0,0,0,.106.088.534.534,0,0,0,.446-.123.792.792,0,0,0-.282.276c0,.047-.041.106,0,.141s.088,0,.123,0a.98.98,0,0,0,.293-.288.475.475,0,0,0-.076.393.111.111,0,0,0,.07.088.082.082,0,0,0,.088-.041.223.223,0,0,0,.035-.094,2.27,2.27,0,0,0,0-.745" transform="translate(-90.51 -211.013)"/><path class="c" d="M163.093,280.288a.065.065,0,0,0,.047-.1.106.106,0,0,0-.117-.041.235.235,0,0,0-.117.065,1.86,1.86,0,0,0-.5.587.17.17,0,0,0,0,.158.152.152,0,0,0,.17.041.587.587,0,0,0,.422-.358.933.933,0,0,0-.164.458c0,.059,0,.141.07.158s.1-.035.129-.082a1.367,1.367,0,0,0,.176-.475.587.587,0,0,0,.123.487.153.153,0,0,0,.117.065.117.117,0,0,0,.082-.088.329.329,0,0,0,0-.129,2.932,2.932,0,0,0-.393-.851" transform="translate(-91.027 -211.909)"/><path class="c" d="M130.318,242.59s-.346.153-.9.4a13.29,13.29,0,0,0-3.9,2.711c-.434.428-.675.722-.692.71a1,1,0,0,1,.153-.223c.106-.135.27-.323.475-.552a11.735,11.735,0,0,1,1.819-1.567,11.463,11.463,0,0,1,2.1-1.173c.288-.123.516-.205.681-.258A1.361,1.361,0,0,1,130.318,242.59Z" transform="translate(-75.502 -196.391)"/><path class="c" d="M129.377,246.659a4.993,4.993,0,0,0-1.467-.158,5.128,5.128,0,0,0-1.42.393,2.852,2.852,0,0,1,2.887-.235Z" transform="translate(-76.192 -197.954)"/><path class="c" d="M131.6,244.9c0,.041-.587-.053-1.285,0s-1.267.2-1.279.164a3.1,3.1,0,0,1,1.267-.287A3.191,3.191,0,0,1,131.6,244.9Z" transform="translate(-77.246 -197.286)"/><path class="c" d="M128.562,243.09a3.064,3.064,0,0,1-.37,1.015,2.934,2.934,0,0,1-.622.892s.241-.422.51-.945S128.526,243.078,128.562,243.09Z" transform="translate(-76.639 -196.597)"/><path class="c" d="M130.913,241.51a3.421,3.421,0,0,1-.716,1.173,3.52,3.52,0,0,1-1.027.909c0-.029.458-.411.933-.986S130.883,241.492,130.913,241.51Z" transform="translate(-77.3 -195.944)"/><path class="c" d="M128.943,242.851a.986.986,0,0,0,.4-.481c0-.065.041-.158,0-.2a.123.123,0,0,0-.164,0,.346.346,0,0,0-.082.158,1.175,1.175,0,0,0-.1-.27.081.081,0,0,0-.094-.07c-.041.012-.047.065-.047.106a2.441,2.441,0,0,0,0,.293c-.047,0-.053-.088-.07-.141s-.082-.094-.123-.059,0,.076,0,.117a1.285,1.285,0,0,0,.293.493" transform="translate(-77.085 -196.141)"/><path class="c" d="M133.086,244.553a.059.059,0,0,0-.088,0,.088.088,0,0,0,0,.106.229.229,0,0,0,.07.082,1.673,1.673,0,0,0,.546.305.141.141,0,0,0,.129,0,.123.123,0,0,0,0-.141.5.5,0,0,0-.364-.282.816.816,0,0,0,.393.059.114.114,0,0,0,.111-.082c.006-.047-.047-.076-.094-.094a1.044,1.044,0,0,0-.4-.059.428.428,0,0,0,.358-.176s.047-.07.029-.106a.07.07,0,0,0-.082-.047.282.282,0,0,0-.1.029,2.236,2.236,0,0,0-.587.452" transform="translate(-78.874 -197.022)"/><path class="c" d="M134.119,241.994c0-.035-.088,0-.111,0a.117.117,0,0,0,.041.123.229.229,0,0,0,.123.047,1.76,1.76,0,0,0,.757.053c.053,0,.117,0,.135-.082a.119.119,0,0,0-.07-.158.587.587,0,0,0-.546-.117.921.921,0,0,0,.464-.147c.053-.035.106-.1.082-.153s-.088-.059-.141-.053a1.244,1.244,0,0,0-.481.147.587.587,0,0,0,.311-.393.141.141,0,0,0,0-.135.094.094,0,0,0-.117,0,.252.252,0,0,0-.088.088,2.81,2.81,0,0,0-.44.827" transform="translate(-79.297 -195.777)"/><path class="c" d="M159,229.22s.182.329.5.851A13.7,13.7,0,0,0,160.9,232a13.342,13.342,0,0,0,1.725,1.643c.475.381.792.587.78.587a1.3,1.3,0,0,1-.235-.129,6.356,6.356,0,0,1-.587-.411,11.5,11.5,0,0,1-1.76-1.631,11.865,11.865,0,0,1-1.385-1.96c-.147-.27-.258-.493-.329-.651A.858.858,0,0,1,159,229.22Z" transform="translate(-89.627 -190.865)"/><path class="c" d="M163.421,231.51a5.193,5.193,0,0,0,0,1.473,5.069,5.069,0,0,0,.546,1.367,2.452,2.452,0,0,1-.669-1.344A2.529,2.529,0,0,1,163.421,231.51Z" transform="translate(-91.378 -191.812)"/><path class="c" d="M161.408,229.73c.035,0,0,.587.135,1.285s.34,1.232.305,1.25a3.286,3.286,0,0,1-.428-1.232A3.251,3.251,0,0,1,161.408,229.73Z" transform="translate(-90.597 -191.076)"/><path class="c" d="M160,234.07a2.986,2.986,0,0,1,1.056.252,3.109,3.109,0,0,1,.956.516c0,.035-.446-.194-1-.4S160,234.105,160,234.07Z" transform="translate(-90.041 -192.87)"/><path class="c" d="M158.16,231.38a3.62,3.62,0,0,1,1.244.587,3.562,3.562,0,0,1,1.015.927,10,10,0,0,0-1.085-.821C158.705,231.662,158.142,231.415,158.16,231.38Z" transform="translate(-89.28 -191.758)"/><path class="c" d="M159.837,233.882a1,1,0,0,0-.522-.352c-.07,0-.164,0-.2.041a.123.123,0,0,0,.041.158.317.317,0,0,0,.164.065,1.175,1.175,0,0,0-.258.129c-.041,0-.076.065-.065.106s.07.041.111.035l.293-.041c0,.047-.082.059-.129.088s-.088.088-.053.129.082,0,.123,0a1.456,1.456,0,0,0,.458-.346" transform="translate(-89.626 -192.647)"/><path class="c" d="M161.026,229.426c-.035,0-.035.065,0,.088a.1.1,0,0,0,.106,0,.241.241,0,0,0,.07-.082,1.614,1.614,0,0,0,.246-.587.141.141,0,0,0,0-.129c-.035-.029-.094,0-.141,0a.511.511,0,0,0-.235.393.745.745,0,0,0,0-.393.1.1,0,0,0-.094-.106c-.053,0-.065.059-.076.1a.974.974,0,0,0,0,.411.428.428,0,0,0-.217-.334.1.1,0,0,0-.106,0,.088.088,0,0,0-.041.088.205.205,0,0,0,.047.094,2.124,2.124,0,0,0,.51.54" transform="translate(-90.263 -190.613)"/><path class="c" d="M158.376,228.535c-.035,0,0,.094.035.106a.106.106,0,0,0,.117-.053.228.228,0,0,0,.035-.123,1.853,1.853,0,0,0,0-.763.138.138,0,0,0-.1-.123.178.178,0,0,0-.153.082.587.587,0,0,0-.053.557.933.933,0,0,0-.2-.446c-.041-.047-.106-.094-.158-.065a.123.123,0,0,0-.041.147,1.261,1.261,0,0,0,.205.464.587.587,0,0,0-.428-.264.141.141,0,0,0-.129.035.106.106,0,0,0,0,.117.276.276,0,0,0,.1.082,2.934,2.934,0,0,0,.868.34" transform="translate(-89.003 -190.186)"/><path class="c" d="M114,234.19s.188.334.5.857a13.438,13.438,0,0,0,1.4,1.925,13.766,13.766,0,0,0,1.719,1.643c.481.381.792.587.786.587a1.3,1.3,0,0,1-.235-.129,5.869,5.869,0,0,1-.587-.417,11.69,11.69,0,0,1-1.76-1.625,11.878,11.878,0,0,1-1.385-1.966c-.147-.264-.258-.487-.329-.645A1.291,1.291,0,0,1,114,234.19Z" transform="translate(-71.031 -192.919)"/><path class="c" d="M118.416,236.49a5.192,5.192,0,0,0,0,1.473,5.281,5.281,0,0,0,.546,1.367,2.834,2.834,0,0,1-.557-2.84Z" transform="translate(-72.783 -193.87)"/><path class="c" d="M116.4,234.71c.035,0,0,.587.135,1.279s.34,1.238.305,1.25a3.068,3.068,0,0,1-.428-1.226A3.115,3.115,0,0,1,116.4,234.71Z" transform="translate(-71.995 -193.134)"/><path class="c" d="M115,239a3.08,3.08,0,0,1,1.056.258,2.781,2.781,0,0,1,.951.516s-.44-.194-.992-.4A7.241,7.241,0,0,1,115,239Z" transform="translate(-71.444 -194.907)"/><path class="c" d="M113.14,236.35a4.588,4.588,0,0,1,2.259,1.5c0,.029-.458-.4-1.08-.821S113.128,236.385,113.14,236.35Z" transform="translate(-70.675 -193.812)"/><path class="c" d="M114.826,238.862a1,1,0,0,0-.522-.352c-.07,0-.164,0-.2.035a.129.129,0,0,0,.035.164.428.428,0,0,0,.17.065,1.085,1.085,0,0,0-.264.123.086.086,0,0,0-.059.106c.018.041.07.041.111.035l.293-.035a.346.346,0,0,1-.135.082c-.041,0-.082.094-.047.129s.082,0,.117,0a1.414,1.414,0,0,0,.464-.346" transform="translate(-71.024 -194.705)"/><path class="c" d="M116.016,234.438a.059.059,0,0,0,0,.094.1.1,0,0,0,.106,0,.31.31,0,0,0,.07-.082,1.642,1.642,0,0,0,.246-.587v-.123c0-.023-.1,0-.141,0a.528.528,0,0,0-.235.4.769.769,0,0,0,0-.4c0-.047-.041-.106-.094-.1s-.07.053-.076.1a.974.974,0,0,0,0,.411.434.434,0,0,0-.217-.34.129.129,0,0,0-.111,0,.094.094,0,0,0-.035.094.27.27,0,0,0,.041.094,2.347,2.347,0,0,0,.516.54" transform="translate(-71.662 -192.692)"/><path class="c" d="M113.354,233.506a.065.065,0,0,0,.035.106.106.106,0,0,0,.117-.047.323.323,0,0,0,.035-.129,1.76,1.76,0,0,0-.035-.757.17.17,0,0,0-.094-.129.158.158,0,0,0-.153.088.587.587,0,0,0-.053.587.91.91,0,0,0-.2-.446c-.041-.047-.106-.094-.164-.065s-.047.094-.035.147a1.261,1.261,0,0,0,.205.464.587.587,0,0,0-.428-.27.129.129,0,0,0-.129.041.1.1,0,0,0,0,.117.276.276,0,0,0,.1.082,2.851,2.851,0,0,0,.868.34" transform="translate(-70.385 -192.241)"/><path class="b" d="M130.04,227.127h-.792a6.454,6.454,0,0,0-2.235.587c-1.86.827-4.066,3.116-5.5,6.607h0l-11.688,24.473-.035.076H109.7l-19.21.434.141-.1-2.488,6.249c-.258.657-.516,1.3-.775,1.948l-.106-.205,27.4,6.308h-.076a7.347,7.347,0,0,0,3.315-1.649,5.656,5.656,0,0,0,1.109-1.42l.915-1.549,3.356-5.867,5.445-9.582,3.52-6.173.933-1.625c.106-.176.182-.317.246-.417s.082-.141.088-.135l-.07.147-.229.422c-.205.387-.5.933-.9,1.649l-3.438,6.214c-1.5,2.664-3.3,5.9-5.375,9.593l-3.333,5.867c-.305.516-.587,1.033-.915,1.561a5.868,5.868,0,0,1-1.174,1.473,7.552,7.552,0,0,1-3.438,1.725h-.059l-27.4-6.278-.17-.035.065-.17c.252-.64.51-1.291.775-1.942l2.488-6.249.035-.094h.106l19.193-.323-.123.082c4.77-9.9,8.848-18.353,11.782-24.432h0c1.479-3.52,3.726-5.809,5.633-6.63a6.455,6.455,0,0,1,2.271-.587h.8Z" transform="translate(-59.881 -189.981)"/><path class="b" d="M124.169,310.5c-2.787-3.339-6.965-5.868-11.307-5.609a25.976,25.976,0,0,0-10.092,3.245c-7.628,4.324-6.214,14.176-6.214,14.176l8.3,52.174,15.355-1.983-1.678-50.155,8.52-6.5Z" transform="translate(-63.78 -222.128)"/><path class="h" d="M142.776,323.34a1.873,1.873,0,0,1-.147.141l-.446.393-1.731,1.473-6.349,5.316.041-.094c.241,4.976.487,11.377.71,18.336.246,8.214.469,15.6.634,20.994.082,2.67.153,4.835.2,6.36,0,.733.035,1.314.047,1.76v.452a.588.588,0,0,1,0,.153.649.649,0,0,1,0-.153,2.2,2.2,0,0,0-.035-.446c0-.422-.059-1-.1-1.731-.07-1.526-.17-3.691-.3-6.36-.223-5.369-.469-12.791-.722-20.988-.223-6.965-.446-13.36-.64-18.342v-.059l.047-.035,6.413-5.24,1.76-1.42.469-.37A.771.771,0,0,1,142.776,323.34Z" transform="translate(-79.271 -229.761)"/><path class="h" d="M120.306,376.464a.528.528,0,0,1,0,.153v2.318h.035L105,380.994h-.123v-.123c-.98-6.143-2.165-13.5-3.432-21.44-1.7-10.808-3.239-20.583-4.36-27.683a22.959,22.959,0,0,1,0-8.473,11.946,11.946,0,0,1,.628-2.23,4.022,4.022,0,0,1,.37-.716,1.067,1.067,0,0,1-.082.188c-.053.123-.135.305-.229.552a13.007,13.007,0,0,0-.587,2.224,23.47,23.47,0,0,0,.111,8.42c1.138,7.094,2.711,16.869,4.442,27.671,1.256,7.921,2.417,15.3,3.386,21.446l-.141-.106,15.32-1.913-.047.053c0-.78,0-1.379.029-1.807v-.464a.78.78,0,0,1,.023-.129Z" transform="translate(-63.877 -228.517)"/><path class="h" d="M129,321a4.055,4.055,0,0,1,.751,1.027,13.043,13.043,0,0,1,1.262,2.793,13.257,13.257,0,0,1,.587,3.016,4.148,4.148,0,0,1,0,1.267,31.23,31.23,0,0,0-.857-4.189A30.77,30.77,0,0,0,129,321Z" transform="translate(-77.23 -228.794)"/><path class="j" d="M123.464,201.123c1.174-1.173.481-1.837.047-2.992l-8.244-24.643c-3.579-8.074-14.082-3.274-14.082-3.274-4.958,1.819-5.662,7.393-4.512,11.2,1.267,4.225,2.992,9.335,4.624,12.234,3.28,5.832,8.326,4.858,8.326,4.858l2.083,5.621a3.274,3.274,0,0,0,4.893,1.584Z" transform="translate(-63.672 -165.895)"/><path class="b" d="M101.974,196.619a.851.851,0,0,0,1.062.516.81.81,0,0,0,.552-1.021.839.839,0,0,0-1.062-.516.81.81,0,0,0-.552,1.021Z" transform="translate(-66.046 -176.953)"/><path class="b" d="M100.676,194.452c.135.065.587-.587,1.432-.915s1.637-.123,1.69-.264-.141-.211-.487-.305a2.306,2.306,0,0,0-1.4.076,2.23,2.23,0,0,0-1.091.857C100.629,194.2,100.612,194.423,100.676,194.452Z" transform="translate(-65.511 -175.853)"/><path class="b" d="M115.575,192.252a.851.851,0,0,0,1.062.522.816.816,0,0,0,.587-1.021.857.857,0,0,0-1.068-.522.81.81,0,0,0-.581,1.021Z" transform="translate(-71.668 -175.149)"/><path class="b" d="M114.988,189.132c.135.07.587-.587,1.432-.915s1.637-.117,1.7-.258-.141-.217-.493-.311a2.306,2.306,0,0,0-1.4.076,2.235,2.235,0,0,0-1.091.863C114.988,188.885,114.941,189.1,114.988,189.132Z" transform="translate(-71.432 -173.655)"/><path class="b" d="M112.334,197.88a5.791,5.791,0,0,0-1.484.264c-.223.059-.446.094-.54-.041a1.174,1.174,0,0,1-.094-.7v-1.9a32.769,32.769,0,0,0-.164-4.888,30.156,30.156,0,0,0-.229,4.888v1.9a1.361,1.361,0,0,0,.205.9.587.587,0,0,0,.475.182,1.648,1.648,0,0,0,.393-.082A5.785,5.785,0,0,0,112.334,197.88Z" transform="translate(-69.3 -174.91)"/><path class="o" d="M119.06,215.741a16.828,16.828,0,0,0,7.475-5.281s-.434,5-6.853,6.724Z" transform="translate(-73.122 -183.113)"/><path class="o" d="M116.372,206.048a.809.809,0,0,1,.417-1.443.722.722,0,0,1,.2-.857,1.015,1.015,0,0,1,.9-.158,1.391,1.391,0,0,1,1,1.367,1.531,1.531,0,0,1-1.05,1.361,1.707,1.707,0,0,1-1.684-.44" transform="translate(-71.883 -180.256)"/><path class="b" d="M117.443,202.458c-.141.041.2.968-.346,1.925s-1.578,1.22-1.537,1.35.287.1.71-.047a2.441,2.441,0,0,0,1.3-1.074,2.124,2.124,0,0,0,.229-1.59C117.695,202.616,117.507,202.429,117.443,202.458Z" transform="translate(-71.675 -179.805)"/><path class="b" d="M112.794,187.1c.17.205.986-.223,2.03-.475s1.96-.282,2.018-.54c0-.117-.2-.287-.587-.387a3.426,3.426,0,0,0-1.631.029,3.521,3.521,0,0,0-1.455.739C112.835,186.757,112.718,187.015,112.794,187.1Z" transform="translate(-70.523 -172.846)"/><path class="b" d="M98.652,189.842c.223.141.733-.282,1.438-.552s1.361-.358,1.42-.587c0-.123-.141-.282-.469-.37a2.147,2.147,0,0,0-1.3.117,2.124,2.124,0,0,0-1.009.821C98.559,189.543,98.547,189.772,98.652,189.842Z" transform="translate(-64.661 -173.948)"/><path class="b" d="M120.987,193.8a.194.194,0,0,1-.194.194.2.2,0,0,1,0-.393.194.194,0,0,1,.194.2Z" transform="translate(-73.77 -176.145)"/><path class="b" d="M127.631,197.037l4.031.9-.205-1.449a17.415,17.415,0,0,0-5.48-10.843c-5.069-4.524,1.8-6.272-2.605-12.245a18.841,18.841,0,0,0-5.152-5.052,8.006,8.006,0,0,1-1.039-.78,31.46,31.46,0,0,0-2.541-2.312,4.377,4.377,0,0,0-2.4-.874h0a6.736,6.736,0,0,0-1.608-.452c-2.47-.376-4.923.622-7.223,1.59s-8.214.716-6.319,6.836h0a2.03,2.03,0,0,1,3.127-.863,3.661,3.661,0,0,1,1.461,2.388c.27,1.426.687,3.01,2.417,3.374a3.034,3.034,0,0,0,1.279,0c1.443-.323,2.6-2.505,5.351-1.983,0,0,2.681.827,2.84,2.511s-.78,4.817.874,6.308,1.925,1.449,1.883,2.734v.645c-.211,2.036.182,11.917,8.308,8.76l3.028.821" transform="translate(-63.891 -163.852)"/><path class="b" d="M134.864,220.41a.7.7,0,0,1,.076.153,1.507,1.507,0,0,1,.106.475,1.484,1.484,0,0,1-.129.774,2.575,2.575,0,0,1-.622.827,18.189,18.189,0,0,1-2.059,1.637l-2.67,1.76a13.96,13.96,0,0,1-1.438.868,9.341,9.341,0,0,1-1.461.552,9.134,9.134,0,0,1-1.391.282,2.007,2.007,0,0,1-1.226-.323,3.52,3.52,0,0,1-1.2-1.32,1.491,1.491,0,0,1-.217-.622,5.527,5.527,0,0,0,.317.587,3.738,3.738,0,0,0,1.22,1.173,1.813,1.813,0,0,0,1.091.258,8.805,8.805,0,0,0,1.338-.3,9.631,9.631,0,0,0,1.414-.552,14.618,14.618,0,0,0,1.4-.851l2.687-1.76a20.425,20.425,0,0,0,2.065-1.567,1.819,1.819,0,0,0,.78-1.432C134.928,220.639,134.834,220.416,134.864,220.41Z" transform="translate(-74.597 -187.225)"/></g><g transform="translate(195.87 177.928)"><path class="f" d="M423.078,373.671a7.5,7.5,0,0,1,3.937-5.028c2.024-.868,4.536-.393,6.689.387s4.266,1.831,6.548,1.971,4.864-.945,5.551-3.127c.64-2.054-.587-4.242-2.147-5.738a13.542,13.542,0,0,0-22.185,5.328" transform="translate(-363.288 -308.503)"/><g class="p" transform="translate(58.182 49.85)"><path d="M423.078,373.671a7.5,7.5,0,0,1,3.937-5.028c2.024-.868,4.536-.393,6.689.387s4.266,1.831,6.548,1.971,4.864-.945,5.551-3.127c.64-2.054-.587-4.242-2.147-5.738a13.542,13.542,0,0,0-22.185,5.328" transform="translate(-421.47 -358.353)"/></g><path class="f" d="M391.466,381.608c-3.35-3.186-3.186-8.725-1.514-13.038s5.322-7.628,9.388-9.8a29.771,29.771,0,0,1,25.952-.839,12.321,12.321,0,0,0-9.975,5.867c-1.837,3.051-2.247,6.753-3.767,9.975a15.69,15.69,0,0,1-20.108,7.862" transform="translate(-349.783 -307.263)"/><path class="f" d="M387.019,328.6c-3.714-4.377-4.207-11.412-3.661-17.127s1.872-11.471.968-17.139c-.534-3.362-1.837-6.572-2.277-9.94s.182-7.188,2.8-9.388c3-2.5,7.733-1.907,10.861.44s4.935,6.043,6.255,9.722c2.934,8.079,3.978,17.045,1.59,25.295s-7.991,15.631-16.212,18.119" transform="translate(-346.943 -273.393)"/><path class="b" d="M387.561,400.465a2.586,2.586,0,0,1,0-.5v-1.449c.047-1.256.17-3.074.452-5.281a69.821,69.821,0,0,1,1.426-7.774,35.789,35.789,0,0,1,3.52-8.995,37.551,37.551,0,0,1,11.905-12.82c.927-.645,1.825-1.127,2.6-1.578a21.015,21.015,0,0,1,2.059-1.033l1.332-.557a3.855,3.855,0,0,1,.475-.182,2.53,2.53,0,0,1-.452.235l-1.3.616c-.557.288-1.238.64-2.018,1.068A27.1,27.1,0,0,0,405,363.816a38.226,38.226,0,0,0-11.735,12.773c-3.415,5.967-4.348,12.245-5.023,16.64-.311,2.224-.464,4.037-.546,5.281q-.053.909-.088,1.443A2.669,2.669,0,0,1,387.561,400.465Z" transform="translate(-349.27 -309.303)"/><path class="f" d="M328.582,338c-6.871,4.142-6.847,7.915-5.7,11.471s5.357,6.032,8.854,4.694a10.873,10.873,0,0,0,4.629-4.2c1.226-1.725,2.347-3.573,4.107-4.811s4.2-1.713,5.92-.481" transform="translate(-322.309 -300.092)"/><g class="p" transform="translate(0 37.908)"><path d="M328.582,338c-6.871,4.142-6.847,7.915-5.7,11.471s5.357,6.032,8.854,4.694a10.873,10.873,0,0,0,4.629-4.2c1.226-1.725,2.347-3.573,4.107-4.811s4.2-1.713,5.92-.481" transform="translate(-322.309 -338)"/></g><path class="f" d="M324.25,339.21c1.8-2.482,6.231-3.2,9.03-1.96s4.852,3.691,6.689,6.143,3.626,5.034,6.167,6.742,6.1,2.347,8.637.587a7.411,7.411,0,0,0,2.934-5.075,16.927,16.927,0,0,0-.4-5.991c-.587-2.881-1.6-5.868-3.9-7.716-2.57-2.042-6.132-2.136-9.388-2.03a35.264,35.264,0,0,0-11.107,1.707c-3.526,1.3-7.135,4.107-8.631,7.575" transform="translate(-323.111 -296.737)"/><path class="b" d="M365.409,382.931a.462.462,0,0,1,0-.147v-.446c0-.411-.035-.98-.059-1.7-.041-1.508-.106-3.644-.182-6.272s-.188-5.791-.381-9.288-.452-7.334-.986-11.33a36.738,36.738,0,0,0-1.132-5.756,30.2,30.2,0,0,0-2.106-5.034,28.991,28.991,0,0,0-2.658-4.166,26.405,26.405,0,0,0-2.9-3.186,21.359,21.359,0,0,0-5.14-3.52c-.334-.153-.628-.305-.892-.411l-.669-.258-.411-.17c-.094-.035-.141-.059-.135-.065l.147.035.422.141.681.235c.27.094.587.241.909.387a20.474,20.474,0,0,1,5.234,3.45,27.133,27.133,0,0,1,2.934,3.186,29.073,29.073,0,0,1,2.7,4.189,29.429,29.429,0,0,1,2.142,5.081,35.787,35.787,0,0,1,1.173,5.8c.534,4.013.786,7.862.962,11.359s.264,6.648.317,9.294.076,4.794.082,6.272v2.153a.393.393,0,0,1-.053.164Z" transform="translate(-332.826 -297.273)"/><path class="b" d="M381.2,371.311a20.169,20.169,0,0,1-.751-2.934,30.792,30.792,0,0,1-.311-8.285,54.829,54.829,0,0,1,2.617-12.058c1.408-4.418,3.321-9.142,4.952-14.223a63.626,63.626,0,0,0,1.971-7.487,65.2,65.2,0,0,0,.974-7.182,104.585,104.585,0,0,0,.223-12.275c-.123-3.52-.305-6.325-.422-8.279-.059-.962-.1-1.719-.135-2.253v-.587a.872.872,0,0,1,0-.2.811.811,0,0,1,.029.2c0,.147.035.34.059.587.047.534.106,1.291.188,2.247.153,1.954.375,4.782.522,8.285a100.2,100.2,0,0,1-.158,12.322,65.815,65.815,0,0,1-.956,7.217,65.045,65.045,0,0,1-2,7.546c-1.637,5.093-3.562,9.816-4.981,14.217a56.083,56.083,0,0,0-2.67,11.952,32.272,32.272,0,0,0,.217,8.244c.17.962.323,1.707.458,2.206l.141.587A.834.834,0,0,1,381.2,371.311Z" transform="translate(-346.146 -282.549)"/><path class="h" d="M387.841,425.588H355.6l-.739-6.208h32.981Z" transform="translate(-335.761 -333.722)"/><path class="h" d="M362.01,428.76l4.031,18.617h17.52l3.773-18.617Z" transform="translate(-338.716 -337.599)"/><path class="h" d="M388.754,429.856c0,.088-7.088.135-15.842.112s-15.842-.117-15.842-.2,7.088-.135,15.842-.111S388.754,429.75,388.754,429.856Z" transform="translate(-336.674 -337.967)"/><path class="b" d="M386.56,443.789a13.438,13.438,0,0,0-2.84-1.625,9.975,9.975,0,0,0-3.456-.692,12.028,12.028,0,0,0-4.242.78c-1.473.493-2.846,1.074-4.183,1.391a9.974,9.974,0,0,1-3.608.111,7.5,7.5,0,0,1-2.347-.739,4.853,4.853,0,0,1-.557-.352c-.123-.094-.182-.147-.176-.152s.276.158.786.4a8.118,8.118,0,0,0,2.3.628,10.193,10.193,0,0,0,3.521-.17c1.291-.323,2.664-.909,4.142-1.408a11.957,11.957,0,0,1,4.354-.769,9.81,9.81,0,0,1,3.52.775,8.994,8.994,0,0,1,2.1,1.226,5.24,5.24,0,0,1,.5.428C386.513,443.724,386.566,443.783,386.56,443.789Z" transform="translate(-340.013 -342.735)"/><path class="g" d="M386.677,445.942a13.978,13.978,0,0,0-2.728-1.6,9.13,9.13,0,0,0-3.327-.686,11.87,11.87,0,0,0-4.107.739c-1.42.469-2.752,1.021-4.025,1.367a10.334,10.334,0,0,1-3.474.387,5.869,5.869,0,0,1-2.277-.587,3.9,3.9,0,0,1-.54-.34c-.117-.088-.176-.141-.17-.147s.27.153.763.381a6.282,6.282,0,0,0,2.236.5,10.464,10.464,0,0,0,3.385-.446c1.244-.352,2.57-.9,4-1.385a11.945,11.945,0,0,1,4.213-.733,9.157,9.157,0,0,1,3.409.769,9.353,9.353,0,0,1,2.013,1.22,5.342,5.342,0,0,1,.481.422C386.63,445.878,386.683,445.936,386.677,445.942Z" transform="translate(-340.376 -343.644)"/><path class="g" d="M386.646,441.5a15.394,15.394,0,0,0-2.934-1.719,10.761,10.761,0,0,0-3.52-.851,11.436,11.436,0,0,0-4.383.775,39.657,39.657,0,0,1-4.324,1.408,11.046,11.046,0,0,1-3.732,0,8.554,8.554,0,0,1-2.394-.763,4.23,4.23,0,0,1-.587-.358c-.129-.094-.188-.147-.182-.158s.282.17.816.411a9.2,9.2,0,0,0,2.376.651,11.151,11.151,0,0,0,3.644-.07,43.509,43.509,0,0,0,4.283-1.426,11.372,11.372,0,0,1,4.494-.763,10.563,10.563,0,0,1,3.609.933,10.362,10.362,0,0,1,2.153,1.3,6.466,6.466,0,0,1,.516.446C386.6,441.428,386.651,441.493,386.646,441.5Z" transform="translate(-339.781 -341.677)"/><path class="b" d="M388.734,429.893c0,.082-7.252.153-16.194.153s-16.2-.07-16.2-.153,7.252-.153,16.2-.153S388.734,429.81,388.734,429.893Z" transform="translate(-336.372 -338.004)"/></g></g></svg>