<svg id="Layer_1" data-name="Layer 1" xmlns="http://www.w3.org/2000/svg" viewBox="0 0 983.89 727.95"><defs><style>.cls-1{fill:#fff;}</style></defs><title>logo_main</title><path class="cls-1" d="M478.45,582H83.19c-2.54,0-5.08,0-7.61-.08a14.49,14.49,0,0,1-13.84-11.24A18.12,18.12,0,0,1,62,559.35c2.52-6.76,8.27-10.83,16.09-11.1,5.61-.19,11.24-.53,16.84-.57,13.89-.11,27.76-.81,41.64-1,11.46-.16,22.92-.27,34.37-.72,6.5-.25,13-.34,19.49-.55a21.22,21.22,0,0,0,8.38-1.64c10.44-4.81,8.41-17.85,2.25-22.26a25.17,25.17,0,0,0-15.05-5.1q-75.09.12-150.17.06a29,29,0,0,1-8.17-1,10.65,10.65,0,0,1-6.85-5.79,24,24,0,0,1-1.24-18.33c1.65-5.32,5.61-8,11-8.63a43,43,0,0,1,5-.11l211.69,0a47,47,0,0,0,9.54-.65c5.4-1.12,8.71-4.36,10.44-9.49a22,22,0,0,0-.52-15.21c-2.92-7.8-6.64-9.68-13.55-9.66-20.4.07-40.79,0-61.19,0s-41,0-61.52,0a72.8,72.8,0,0,1-9.56-.58c-7-.91-11.24-4.54-13.08-11.29a22.58,22.58,0,0,1-.37-10.17,11.83,11.83,0,0,1,8.08-9.29,41.65,41.65,0,0,1,14.25-2.52q35.22,0,70.45,0a41.17,41.17,0,0,0,8.22-.76c6.73-1.38,9.88-5.12,10-12,.06-3.41.19-6.81-.93-10.15a12.19,12.19,0,0,0-8.4-8.19,31.83,31.83,0,0,0-9.47-1.22q-45.48,0-91,0l-15.21,0a17.1,17.1,0,0,1-8.84-2.36,13,13,0,0,1-6.47-8.77,21,21,0,0,1,.73-11.08,10.29,10.29,0,0,1,9.06-7.61,57.93,57.93,0,0,1,7.57-.59q24,0,48,0c1.21,0,2.43-.1,3.63,0,4.08.38,6.7-1.4,8.3-5.1a46.11,46.11,0,0,1,3.22-6.15c6.31-10.11,15.72-15.42,27.27-17.34a54.66,54.66,0,0,1,9.22-.7c7.5,0,15,.09,22.49,0,61.07-1,122.15-.36,183.22-.36,11.45,0,22.93,0,34.37.5,11.18.51,21.36,4,30,11.49,9.63,8.39,14.36,18.91,14.6,31.65.18,10.31-3.37,19.15-9.66,27.12a105.23,105.23,0,0,1-8.38,8.9,16.16,16.16,0,0,1-5.77,3.78c-6.16,2.28-9.88,6.81-12,12.82-1,2.81-1.84,5.66-2.63,8.53-5.13,18.61-11.45,36.84-17.51,55.15-1.34,4.08-2.56,8.21-3.89,12.29a24.18,24.18,0,0,0-1,9.81c.47,5.12,3.43,7.81,8.52,8.38a145.68,145.68,0,0,0,16.18.49l175.63,0a54.67,54.67,0,0,0,11.49-1.12c6.78-1.44,11-5.67,13.17-12.14a38.53,38.53,0,0,0,1.74-10.74,255.46,255.46,0,0,0-2.32-43.52c-1.89-14.22-4.95-28.21-7.82-42.24-4.94-24.19-10.33-48.28-15.61-72.4q-4.35-19.86-8.65-39.73c-1.37-6.38-2.65-7.5-9.13-7.5q-22.67,0-45.32,0a19.07,19.07,0,0,1-8.63-1.86c-5.67-2.78-8.19-7.77-7.89-14.06a24.27,24.27,0,0,1,.46-3.27c1.2-6.32,5-10.08,11.39-10.57a230.58,230.58,0,0,1,34.67-.31,121,121,0,0,0,18.16-.13c11.7-.88,23.15-3.22,34.5-5.9,8.91-2.11,17.91-3.75,26.75-6.16,4.78-1.3,6.78-.27,9,4.15a51.11,51.11,0,0,1,2.24,6.21c3.42,9.65,7.21,19.18,10.28,28.95,1.44,4.6,2.76,5.55,7.66,5.55,6.06,0,12.13-.1,18.19,0,3.73.08,7.46.36,11,1.91,5.24,2.3,7.76,6.33,7.82,11.93.08,6.17,0,12.35,0,18.52s0,12.34,0,18.52c0,7.78-2.77,11.77-10,14.65-5.17,2.07-5.34,2.57-3.4,7.79q8.67,23.24,17.28,46.49,7.82,21.07,15.6,42.16c.35.93.71,1.85,1.07,2.78,1.7,4.49,4.95,6.72,9.75,7.15a163.65,163.65,0,0,1,34.38,6.43A129.38,129.38,0,0,1,827,477.17a126.41,126.41,0,0,1,25.65,20.18A121.69,121.69,0,0,1,873,526.07a127.61,127.61,0,0,1,11.9,37.31,91.63,91.63,0,0,1,1.66,12.77c.13,4.54-1.07,5.73-5.55,5.83-2.43,0-4.85,0-7.28,0H478.45Z" transform="translate(-9.11 -125.39)"/><path class="cls-1" d="M293,213.32c-.23.21-.14.6-.13,1.28q.06,3.38,0,6.75c-.05,2.76-.16,5.53-.33,8.29-.11,1.69.41,4.24-.62,5.71a1.08,1.08,0,0,1-1.42.37,1.44,1.44,0,0,1-.45-1,15.94,15.94,0,0,1-.1-2.07c0-3,0-6,0-9.06,0-2.27.43-5.06-.5-7.2a36.82,36.82,0,0,0-2.81,12.74c-.67,7,.71,13.57,5,19.4a16.66,16.66,0,0,1,2.88,9.69,285,285,0,0,1-1.17,29.36,64.25,64.25,0,0,0-.12,6.94c.11,3.22-.63,6.35-.81,9.54a4.28,4.28,0,0,1-3.67,4.12,20.2,20.2,0,0,1-4.58.55H168a17,17,0,0,1-9.19-2.27,8.76,8.76,0,0,1-2.87-12.12,35.93,35.93,0,0,1,2.56-3.46,6.7,6.7,0,0,1,5.46-2.63c2.09,0,4.19,0,6.28-.12,2.69-.19,3.66-1.07,4.42-3.67.84-2.88.82-5.88,1.22-8.83,3-22.21,10.13-42.83,23-61.34a125.41,125.41,0,0,1,29.82-30.2,161.41,161.41,0,0,1,35.93-19.53A107.48,107.48,0,0,1,286,159.11a79.1,79.1,0,0,0,13.53-3.06c3.51-1.26,3.91-2.17,2.63-5.7s-3-6.38-6.91-7.38a8.29,8.29,0,0,1-1.79-.83c-4.7-2.53-5.36-6.17-1.82-10.25s8.17-5.58,13.15-6.25a25.72,25.72,0,0,1,19.07,4.87,9.32,9.32,0,0,1,1.75,1.49c3.45,4.25,3.62,7.21-1.28,10.35a30,30,0,0,1-5.64,2.74,7.36,7.36,0,0,0-4.54,4.51,5.07,5.07,0,0,0,3,6.74,14.57,14.57,0,0,0,3.21.76c17.58,2.58,34.48,7.32,50.24,15.69a140.92,140.92,0,0,1,26.51,18.46,127.67,127.67,0,0,1,17.52,19.26,150.88,150.88,0,0,1,18.69,32.25,106.49,106.49,0,0,1,7.81,29.95c.41,3.61,0,7.27.79,10.87s1.69,4.52,5.25,4.61c1.21,0,2.42,0,3.63,0,5.45,0,9.09,2.87,11.63,7.41a4.21,4.21,0,0,1-.19,4.71c-3.47,4.94-7.48,8.52-14.27,8.49-35.5-.19-71-.08-106.51-.08a19.54,19.54,0,0,1-6.22-.61,4.91,4.91,0,0,1-3.77-4.83c-.07-1.55-.06-3.09-.06-4.63q0-37,0-74.1c0-3.43-.6-6.8-.7-10.22a5.34,5.34,0,0,0-.52-1.89c-.45-1-1.22-1.29-2.1-.51a13.63,13.63,0,0,0-3.84,4.88c-3.74,8.84-5.29,18.13-6.08,27.64-.41,5-.49,9.89-.66,14.84a51.13,51.13,0,0,0,2.81,17.54,36.74,36.74,0,0,1,1.92,12.34c-.1,3.42,0,6.84,0,10.26,0,.77,0,1.54,0,2.31-.3,5.18-1.71,6.67-6.81,6.91a56.67,56.67,0,0,1-7.6-.07c-3.49-.31-4.9-1.78-5.28-5.24a38.87,38.87,0,0,1-.14-4.95,320.31,320.31,0,0,0-1.85-34.63A25.91,25.91,0,0,1,306,244.87a11.66,11.66,0,0,0,2.4-7.32,78,78,0,0,0-2.06-20.66c-.14-.53-.25-1.07-.42-1.6-.06-.18-.25-.32-.52-.66a4.05,4.05,0,0,0-.36,2.5c0,4.85,0,9.7,0,14.55,0,.66-.08,1.31-.06,2a3.19,3.19,0,0,1-.2,1.47,1.24,1.24,0,0,1-1.15.79,1.48,1.48,0,0,1-.85-.41,1.1,1.1,0,0,1-.26-.31,1.17,1.17,0,0,1-.09-.45c-.43-6.65-.43-13.34-1-20,0-.13-.05-1.54-.25-1.55-1-.1-2.08-.14-3.11-.21q.48,6.34.69,12.71a60.58,60.58,0,0,1,.05,8.52,1.64,1.64,0,0,1-.38,1,1.42,1.42,0,0,1-1.45.15,1.84,1.84,0,0,1-1.14-.91,2.69,2.69,0,0,1-.14-.8c-.23-3.52-.4-7.05-.49-10.58-.09-3.23.45-6.92-.06-10.08a10.85,10.85,0,0,0-1.4.07A1.3,1.3,0,0,0,293,213.32Zm60.2-31.61a5.7,5.7,0,0,0,2.56,2.88,161.05,161.05,0,0,1,15.54,12.78,141.58,141.58,0,0,1,27.91,35.34,116.5,116.5,0,0,1,13.08,41c.46,3.49.84,7,1.31,10.48.34,2.42,1.31,3.68,3.36,3.88a45.29,45.29,0,0,0,9.24,0c2.11-.22,3.11-1.45,3.12-3.57a14,14,0,0,0-.48-3.26q-1.56-6.58-3.57-13.06c-6.19-20-15.48-38.33-29.32-54.23a125.82,125.82,0,0,0-37.21-29.68C357.1,183.39,355.4,182.71,353.17,181.71Z" transform="translate(-9.11 -125.39)"/><path class="cls-1" d="M767.55,590.52h83.33c.66,0,1.32,0,2,0,6.16-.38,7,2,6.51,7.09-1,11.26-3.25,22.27-8.08,32.56a85.31,85.31,0,0,1-21.89,28.65,104.78,104.78,0,0,1-34.24,19.5,79,79,0,0,1-23.32,4.32c-19.54.75-37.1-5.17-53.47-15.39a84.09,84.09,0,0,1-31.59-34.32c-5.68-11.4-8.52-23.58-9.88-36.16a21.41,21.41,0,0,1-.1-3.3c.09-2.12.61-2.68,2.79-2.87,1.31-.12,2.64-.08,4-.08Z" transform="translate(-9.11 -125.39)"/><path class="cls-1" d="M244,589.18h85.31c5.59,0,6.3.62,6.14,6.3A85.26,85.26,0,0,1,330.4,621a77.21,77.21,0,0,1-6.15,13.86,82.86,82.86,0,0,1-23,26.06,108.51,108.51,0,0,1-18.59,11.33,97.93,97.93,0,0,1-28.05,8.4,80.93,80.93,0,0,1-38.71-4.35c-19.92-7.31-36.78-19-48.58-37a87.43,87.43,0,0,1-13.12-35.71c-.51-3.48-.86-7-1.21-10.49-.3-3,.36-3.74,3.4-3.88,1.32-.07,2.64,0,4,0Z" transform="translate(-9.11 -125.39)"/><path class="cls-1" d="M197.21,778.74V837c0,1.21,0,2.42,0,3.63-.14,2.87-1.33,4.58-4.07,5.32a60.12,60.12,0,0,1-13.74,1.78c-3.81.13-5.63-1.73-6-5.58-.21-2.19-.15-4.41-.15-6.61l0-110.79a30.23,30.23,0,0,0-.33-5.93c-.82-4.19-2.21-5.61-6.46-6.32-1.51-.25-3.11-.17-4.51-.9s-3.78-1.62-3.66-3.37,2.19-3,4.05-3.37c3.88-.79,7.81-1.4,11.73-1.93,7.75-1,15.52-2,23.34-2.37a183,183,0,0,1,22.46.1,138.48,138.48,0,0,1,16.36,2.17c8.18,1.6,15.65,4.81,21.76,10.49,5.52,5.12,8.84,11.5,8.76,19.28,0,4.06.07,8.08-1.07,12.12-1.59,5.59-4.68,10.11-8.35,14.45-4.34,5.13-10.2,7.94-15.91,11-.58.31-1.23.51-1.77.87-.73.48-1.58,1-1.4,2s1,1.05,1.73,1.35c4.06,1.74,8,3.61,11.31,6.68,5.22,4.79,8.28,10.8,10.52,17.33,3.07,9,5.46,18.14,8.9,27,1.08,2.77,2.05,5.58,3.19,8.32a10.17,10.17,0,0,0,6,5.78,11.32,11.32,0,0,1,3.26,1.58c1.52,1.24,1.46,2.63-.14,3.79a5.45,5.45,0,0,1-2.44,1,93.77,93.77,0,0,1-15.77,1.49c-7.52-.11-12.69-3.8-15.9-10.43a68.7,68.7,0,0,1-3.24-9.37c-3.41-10.83-7-21.6-10.08-32.52-2.84-10-8.89-14-18.53-15.11-2.3-.27-4.61-.46-6.9-.76a7.47,7.47,0,0,1-5.21-2.54,2.06,2.06,0,0,1,0-3,7.68,7.68,0,0,1,4.47-2.62c3.86-.92,7.73-1.77,11.57-2.76a29.3,29.3,0,0,0,7.9-3.31,23.84,23.84,0,0,0,11.43-16.64,47.24,47.24,0,0,0,.18-16.13c-1.66-10.71-8.44-16.94-18.61-19.54a76.72,76.72,0,0,0-19-2.21c-3.35,0-4.85,1.21-5.42,4.5a25.43,25.43,0,0,0-.22,4.28q0,29.76,0,59.53Z" transform="translate(-9.11 -125.39)"/><path class="cls-1" d="M748.94,778.14V837a20.94,20.94,0,0,1-.28,4.61c-.53,2.38-1.84,4-4.32,4.44a67.27,67.27,0,0,1-14.78,1.27c-2.69-.15-4-1.36-4.37-4.06a35.55,35.55,0,0,1-.17-4.62q0-57.72,0-115.43a17.41,17.41,0,0,0-.67-6.21c-1.06-2.89-3-4.55-6.14-4.67-1.65-.07-3.31,0-5-.16a3.06,3.06,0,0,1-3.1-2.49c-.31-1.53.5-2.5,1.63-3.35a10.76,10.76,0,0,1,4.5-2c7.8-1.47,15.67-2.55,23.56-3.29,6.91-.65,13.85-.92,20.8-.88a141,141,0,0,1,28.57,2.87c8.29,1.76,15.94,5,21.92,11.43a25.66,25.66,0,0,1,7.11,15c.76,7.06.38,14.08-2.8,20.71a35.61,35.61,0,0,1-9.9,12.6,56.64,56.64,0,0,1-12.41,7.49,9.74,9.74,0,0,0-1.48.74c-1.83,1.17-1.86,2.36-.08,3.5a9.74,9.74,0,0,0,1.78.86c9.14,3.42,15.14,10,18.79,18.84a41.87,41.87,0,0,1,2,5.6c2.31,9.1,5.79,17.82,8.38,26.83a39.57,39.57,0,0,0,2,5.24c1.58,3.5,3.72,6.46,7.54,7.92,1.61.61,3.54,1.41,3.31,3.6s-2.27,2.19-3.81,2.54c-4.52,1-9,2.1-13.71,2.06a16.18,16.18,0,0,1-13.57-7c-2.86-3.86-4.63-8.25-6.26-12.71-3.63-10-6.48-20.14-9.49-30.28-.59-2-1.18-4-1.95-6A17.69,17.69,0,0,0,775,781.17a56.23,56.23,0,0,0-11.72-1.92,13.08,13.08,0,0,1-7.84-3.1c-.55-.5-1.47-.82-1.24-1.77s1.18-.93,1.87-1.15q3.79-1.17,7.62-2.21a108.61,108.61,0,0,0,13.2-4.27c8.54-3.5,13.66-9.84,15.27-18.9a48.25,48.25,0,0,0,.61-13.48c-1.26-12.32-8.68-18.92-19.12-21.76a64.92,64.92,0,0,0-18.32-2.27c-4.28.09-6,1.65-6.28,5.95-.09,1.32-.06,2.64-.06,4Z" transform="translate(-9.11 -125.39)"/><path class="cls-1" d="M527.3,810.53q0,11.25,0,22.49a39,39,0,0,1-.42,4.93c-.4,3.07-2.16,4.67-5,5.34-6.54,1.54-13.1,3-19.76,4a137.68,137.68,0,0,1-26.37,1.36c-16.36-.7-31.77-4.87-45.8-13.45-15.05-9.19-24.54-22.61-28.61-39.68-3.63-15.26-3.88-30.6,1-45.69,5.18-16.06,15-28.59,29.6-37.15,11.78-6.9,24.66-10.48,38.22-11.82a158.74,158.74,0,0,1,41.47,1.73,34.59,34.59,0,0,1,7.4,1.64c4.12,1.65,5.8,3.87,5.68,8.24-.15,5.63,1,11.19.68,16.83a11.85,11.85,0,0,1-.89,4.83,3.55,3.55,0,0,1-3.38,2.23c-1.62-.05-2.15-1.22-2.61-2.56-2.16-6.26-5.35-11.83-10.89-15.78a38.85,38.85,0,0,0-12.52-5.79A67,67,0,0,0,477.4,710a55,55,0,0,0-27.52,7.07A46.47,46.47,0,0,0,433,733,45.47,45.47,0,0,0,427,748.28a108.22,108.22,0,0,0-2.15,24c.33,13.92,3.54,27.09,11.12,38.91a53.66,53.66,0,0,0,26.79,21.62,70.45,70.45,0,0,0,24.26,4.4,97.33,97.33,0,0,1,10.23.51c4.42.51,6.17-1.06,6.13-5.57q-.19-18.68-.61-37.35c-.09-4-1.41-5.42-5.36-6.4-2.25-.55-4.51-1-6.36-2.59-1-.82-1.1-1.57-.15-2.46a7.36,7.36,0,0,1,4.65-2.27c8.13-.55,16.25-1.2,24.39-1.66a6.77,6.77,0,0,1,7.4,7c0,8.05,0,16.1,0,24.14Z" transform="translate(-9.11 -125.39)"/><path class="cls-1" d="M113.81,814.07c0-6.06.07-12.13,0-18.19-.08-4.88-1.39-6.38-6.22-7.42a12.68,12.68,0,0,1-5.64-2.59,1.41,1.41,0,0,1-.23-2.27,7.88,7.88,0,0,1,5.88-3.23c7.59-.35,15.18-.8,22.77-1.12,3.94-.17,6.59,2.46,6.64,6.49.05,4.3,0,8.6,0,12.89.05,5.51.08,11,.49,16.51.48,6.56.12,13.18.1,19.77,0,.77-.2,1.53-.26,2.3-.25,3.94-2.69,5.88-6.26,6.62-5.82,1.2-11.61,2.59-17.52,3.35a148.91,148.91,0,0,1-25,1.42c-16.3-.66-31.89-4.14-46.2-12.25a60.34,60.34,0,0,1-28-33.09,84.55,84.55,0,0,1-5-35.1c1.27-17,7.07-32.25,19-44.72a67.3,67.3,0,0,1,24.5-15.92c17-6.65,34.55-8.35,52.61-6.84,6.06.51,12,1.7,18,2.35a25.43,25.43,0,0,1,5.14,1.21c4.51,1.47,6,3.46,6.35,8.16.13,2,.27,4,.48,5.92.43,4,.63,8.12.87,12.18.07,1.22,0,2.55-1,3.36-2.17,1.7-4.36,2.39-6.37-.74a9.82,9.82,0,0,1-.79-1.82c-3.88-10-11.26-16.09-21.5-18.82a70.32,70.32,0,0,0-30.16-1.42C67.16,712.64,59.12,717,52,723.36c-10.7,9.63-14.75,22.06-16.31,35.79a114,114,0,0,0-.59,14.18,69.11,69.11,0,0,0,10.83,37c8.21,12.8,19.66,21.51,34.8,25a103.89,103.89,0,0,0,27.89,2.48c4.17-.17,5.17-1.26,5.2-5.49,0-6.06,0-12.13,0-18.19Z" transform="translate(-9.11 -125.39)"/><path class="cls-1" d="M930.63,699.69c5.06.15,8.32,2.45,10.07,6.72,2.91,7.14,5.69,14.33,8.5,21.51q5.43,13.85,10.81,27.71,8.63,22.18,17.21,44.37,7.56,19.57,15,39.18a11.4,11.4,0,0,1,.72,2.87c.21,2-.45,3.23-2.41,3.76a54.51,54.51,0,0,1-14.36,2c-3.41,0-5.67-2.08-7.23-5A135,135,0,0,1,963.43,830c-4.07-9.89-7.69-19.95-11.34-30-.15-.41-.27-.84-.43-1.25-1.66-4.24-3.85-5.81-8.32-5.54-13,.79-26,.37-39,.52-6.06.07-7.59,1.17-9.69,6.93-4.82,13.24-9.62,26.5-14.54,39.7-2.14,5.75-6,7.91-12.16,7.15-1.42-.17-2.84-.37-4.24-.67a1.64,1.64,0,0,1-1.32-2.47c.58-1.54,1.17-3.09,1.8-4.61l47-113.22c1.1-2.65,2.15-5.32,3.37-7.91a18.28,18.28,0,0,0,1.65-9.32c-.11-1.43-.17-2.86-.14-4.29.06-3.16,1.13-4.43,4.32-4.66C924,700.16,927.5,700.23,930.63,699.69Zm-7.94,26.64c-.7,1.6-1.5,3.26-2.14,5-2.26,6.09-4.45,12.2-6.71,18.29-3.71,10-7.48,20-11.2,30-1.15,3.1-.66,3.93,2.47,3.94q18.67.07,37.33,0c2.67,0,2.93-.42,2-2.94q-10-26.22-20.09-52.41C924.06,727.49,924,726.63,922.69,726.33Z" transform="translate(-9.11 -125.39)"/><path class="cls-1" d="M606.23,738.17l3.63.16.46-29.36,2.3-1v30.32h4.13L615.38,708l2.75,1.38,1.38,28.94h2.76l-.94-28.46,2.51.4.65,2.89s2.21,20.08,2.16,28.24c0,3,.53,5.91.65,8.89a23.16,23.16,0,0,1-4.2,14,26,26,0,0,0-4,18.9,24.46,24.46,0,0,1,.19,4.28c-.37,11.14.63,22.24.88,33.36.13,6.15.34,12.32.5,18.48.07,3,.77,5.89.64,8.89-.17,4.21-.92,5.06-5,5.12-8.34.13-16.11-2.2-23.6-5.62a92.64,92.64,0,0,1-27.73-18.88,73,73,0,0,1-20.3-39.7,89.29,89.29,0,0,1,1.72-40,72,72,0,0,1,14.3-27c7.44-8.94,16.58-15.74,26.65-21.4a48.77,48.77,0,0,1,9.43-4,15.55,15.55,0,0,1,7.2-.38c2,.3,2.53,1.72,1.45,3.38a7.88,7.88,0,0,1-4.27,2.94,53.15,53.15,0,0,0-14.72,8.05,55.55,55.55,0,0,0-9,8.79A78.7,78.7,0,0,0,565.83,738a85.31,85.31,0,0,0-6.19,23.55,61.76,61.76,0,0,0,28.6,59.81,73.68,73.68,0,0,0,17.82,7.81c2.72.84,3,.62,3.24-2.23.7-8.79,1.29-17.58,1.38-26.4.08-7.38.65-14.75.54-22.14a21.92,21.92,0,0,0-4.36-13.55,24.13,24.13,0,0,1-5-14.8c0-6.07.65-12.1.91-18.15.27-6.27.74-12.53,1.11-18.8.05-.77.12-2.31.12-2.31l2.51-.77Z" transform="translate(-9.11 -125.39)"/><path class="cls-1" d="M640.44,777.35v54.24a30.36,30.36,0,0,1-.08,3.31,3.5,3.5,0,0,1-2.79,3.26c-1.74.37-2.33-.92-3-2-2.06-3.57-3.06-7.55-4.23-11.45a149.09,149.09,0,0,1-5.84-48,10.32,10.32,0,0,1,2.19-6.46c3.33-4,4.54-8.69,4.53-13.82q0-25.64,0-51.27c0-3.31.21-6.61.37-9.91.12-2.4.38-2.65,2.83-2.35a78.86,78.86,0,0,1,23.45,6.64,80.87,80.87,0,0,1,18.59,11.27,79.83,79.83,0,0,1,29,50.72,79.59,79.59,0,0,1-.57,26.93,77.59,77.59,0,0,1-25.07,44.74c-10.5,9.45-22.67,15.94-36.71,18.56a7.26,7.26,0,0,1-5.41-.83c-1.19-.74-1.38-1.56-.56-2.72a8.89,8.89,0,0,1,5.8-3.52c6-1.13,11.28-3.7,16.42-6.75,10.11-6,17.26-14.64,22.23-25.13a81.08,81.08,0,0,0,8.11-33.2c.46-22.76-8.7-40.78-28.07-53.25a78.66,78.66,0,0,0-15.36-7.66,18.79,18.79,0,0,0-2.19-.74c-2.72-.65-3.67,0-3.69,2.9-.06,8.16,0,16.32,0,24.48Z" transform="translate(-9.11 -125.39)"/><path class="cls-1" d="M350.05,773.12v63.15c0,1.22,0,2.43-.06,3.64a6.41,6.41,0,0,1-4.82,6,50.08,50.08,0,0,1-12.4,1.81c-3.79.19-5.75-1.75-6-5.53-.16-2.64-.11-5.29-.11-7.94q0-53.38,0-106.79a77.6,77.6,0,0,0-.59-8.89,6,6,0,0,0-4.59-5.44,36,36,0,0,0-3.87-.84,9,9,0,0,1-3.16-.88c-1.21-.71-3-1.24-2.82-2.88a4.79,4.79,0,0,1,2.78-3.49,7.57,7.57,0,0,1,2.53-.71c8.07-1.2,16.18-2,24.29-2.81a18.72,18.72,0,0,1,2-.07c4.79,0,6.81,2,6.81,6.84q0,32.4,0,64.8Z" transform="translate(-9.11 -125.39)"/></svg>